SplineFontDB: 3.0
FontName: HmongPahawhUnicodeRegular
FullName: Hmong Pahawh Unicode
FamilyName: Hmong Pahawh Unicode
Weight: Regular
Copyright: Copyright (c) 2017 Hmoob Vaj Loog Vooj Vuab; Copyright (c) 2017 David Corbett
Version: Version 1.000
ItalicAngle: 0
UnderlinePosition: -100
UnderlineWidth: 50
Ascent: 875
Descent: 125
InvalidEm: 0
sfntRevision: 0x00010000
LayerCount: 2
Layer: 0 0 "Back" 1
Layer: 1 0 "Fore" 0
StyleMap: 0x0040
FSType: 0
OS2Version: 3
OS2_WeightWidthSlopeOnly: 0
OS2_UseTypoMetrics: 0
CreationTime: 1495419367
ModificationTime: 1497570067
PfmFamily: 81
TTFWeight: 500
TTFWidth: 5
LineGap: 0
VLineGap: 0
Panose: 0 0 0 0 0 0 0 0 0 0
OS2TypoAscent: 875
OS2TypoAOffset: 0
OS2TypoDescent: -125
OS2TypoDOffset: 0
OS2TypoLinegap: 0
OS2WinAscent: 875
OS2WinAOffset: 0
OS2WinDescent: 122
OS2WinDOffset: 0
HheadAscent: 875
HheadAOffset: 0
HheadDescent: -125
HheadDOffset: 0
OS2SubXSize: 650
OS2SubYSize: 699
OS2SubXOff: 0
OS2SubYOff: 140
OS2SupXSize: 650
OS2SupYSize: 699
OS2SupXOff: 0
OS2SupYOff: 479
OS2StrikeYSize: 49
OS2StrikeYPos: 258
OS2CapHeight: 721
OS2XHeight: 581
OS2Vendor: 'XXXX'
OS2CodePages: 00000000.00000000
OS2UnicodeRanges: 00000003.02000000.00000000.00000000
Lookup: 2 0 0 "'ccmp' kaab and kaav" { "'ccmp' kaab and kaav-1"  } ['ccmp' ('DFLT' <'dflt' > ) ]
Lookup: 260 0 0 "'mark' above" { "'mark' above-1"  } ['mark' ('DFLT' <'dflt' > ) ]
MarkAttachClasses: 1
DEI: 91125

StartChar: exclam
Encoding: 33 33 3
Width: 133
Flags: W
LayerCount: 2
Fore
SplineSet
41.509765625 83.0185546875 m 0
 64.4345703125 83.0185546875 83.0185546875 64.4345703125 83.0185546875 41.509765625 c 0
 83.0185546875 18.5849609375 64.4345703125 0.0009765625 41.509765625 0.0009765625 c 0
 18.5849609375 0.0009765625 0.0009765625 18.5849609375 0.0009765625 41.509765625 c 0
 0.0009765625 64.4345703125 18.5849609375 83.0185546875 41.509765625 83.0185546875 c 0
75.4716796875 192.452148438 m 1
 15.09375 192.452148438 l 1
 7.546875 818.8671875 l 1
 83.0185546875 818.8671875 l 1
 75.4716796875 192.452148438 l 1
EndSplineSet
EndChar

StartChar: quotedbl
Encoding: 34 34 4
Width: 250
Flags: W
LayerCount: 2
Fore
SplineSet
139.623046875 826.415039062 m 1
 200 826.415039062 l 1
 200 615.094726562 l 1
 139.623046875 615.094726562 l 1
 139.623046875 826.415039062 l 1
0 615.094726562 m 1
 -0 826.415039062 l 1
 60.376953125 826.415039062 l 1
 60.376953125 615.094726562 l 1
 0 615.094726562 l 1
EndSplineSet
EndChar

StartChar: u16B5D
Encoding: 93021 93021 5
Width: 528
Flags: W
LayerCount: 2
Fore
SplineSet
457.524414062 115.412109375 m 2
 458.936523438 112.309570312 460.30859375 108.868164062 461.608398438 104.969726562 c 0
 477.564453125 57.1015625 455.264648438 30.8193359375 437.998046875 16.4296875 c 0
 420.290039062 1.673828125 393.80078125 -0.9619140625 377.684570312 -1.0400390625 c 0
 326.565429688 -1.291015625 288.895507812 36.1171875 293.3828125 107.920898438 c 1
 293.3828125 252.830078125 l 1
 184.18359375 252.830078125 l 1
 184.18359375 120.77734375 l 1
 184.18359375 107.920898438 l 1
 188.670898438 36.1171875 151.000976562 -1.291015625 99.8818359375 -1.0400390625 c 0
 83.765625 -0.9619140625 57.2763671875 1.673828125 39.568359375 16.4296875 c 0
 22.3017578125 30.8193359375 0.001953125 57.1015625 15.9580078125 104.969726562 c 0
 17.2578125 108.868164062 18.6298828125 112.309570312 20.0419921875 115.412109375 c 2
 57.18359375 101.791015625 l 2
 55.7919921875 98.236328125 51.375 90.0458984375 51.375 81.359375 c 0
 51.375 48.8955078125 88.7431640625 45.6943359375 101.547851562 48.8955078125 c 0
 125.158203125 54.7978515625 128.109375 78.408203125 128.109375 104.969726562 c 2
 128.109375 120.77734375 l 1
 128.109375 433.618164062 l 1
 128.109375 449.681640625 l 2
 128.109375 476.243164062 125.158203125 499.853515625 101.547851562 505.755859375 c 0
 88.7431640625 508.95703125 51.375 505.755859375 51.375 473.291992188 c 0
 51.375 464.60546875 55.7919921875 456.415039062 57.18359375 452.860351562 c 2
 20.0419921875 439.239257812 l 2
 18.6298828125 442.341796875 17.2578125 445.782226562 15.9580078125 449.680664062 c 0
 0.001953125 497.548828125 22.3017578125 523.831054688 39.568359375 538.220703125 c 0
 57.2763671875 552.9765625 83.765625 555.612304688 99.8818359375 555.690429688 c 0
 151.000976562 555.94140625 188.670898438 518.533203125 184.18359375 446.729492188 c 1
 184.18359375 433.6171875 l 1
 184.18359375 313.206054688 l 1
 293.3828125 313.206054688 l 1
 293.3828125 446.729492188 l 1
 288.895507812 518.533203125 326.565429688 555.94140625 377.684570312 555.690429688 c 0
 393.80078125 555.612304688 420.290039062 552.9765625 437.998046875 538.220703125 c 0
 455.264648438 523.831054688 477.564453125 497.548828125 461.608398438 449.680664062 c 0
 460.30859375 445.782226562 458.936523438 442.341796875 457.524414062 439.239257812 c 2
 420.3828125 452.860351562 l 2
 421.774414062 456.415039062 426.19140625 464.60546875 426.19140625 473.291992188 c 0
 426.19140625 505.755859375 388.823242188 508.95703125 376.018554688 505.755859375 c 0
 352.408203125 499.853515625 349.45703125 476.243164062 349.45703125 449.681640625 c 2
 349.45703125 104.969726562 l 2
 349.45703125 78.408203125 352.408203125 54.7978515625 376.018554688 48.8955078125 c 0
 388.823242188 45.6943359375 426.19140625 48.8955078125 426.19140625 81.359375 c 0
 426.19140625 90.0458984375 421.774414062 98.236328125 420.3828125 101.791015625 c 2
 457.524414062 115.412109375 l 2
EndSplineSet
EndChar

StartChar: u16B5E
Encoding: 93022 93022 6
Width: 517
Flags: W
LayerCount: 2
Fore
SplineSet
410.55078125 554.716796875 m 1
 466.502929688 554.711914062 l 1
 466.502929688 108.73046875 l 1
 466.5 108.73046875 l 1
 466.450195312 40.912109375 464.436523438 4.5166015625 381.91015625 0.07421875 c 0
 375.72265625 -0.2587890625 369.08203125 -0.412109375 361.956054688 -0.3857421875 c 0
 262.594726562 -0.75390625 257.668945312 33.8662109375 257.424804688 102.842773438 c 1
 257.408203125 102.842773438 l 1
 257.408203125 223.586914062 l 1
 183.932617188 223.586914062 l 1
 183.795898438 107.41015625 l 2
 183.88671875 105.916015625 183.959960938 104.4375 184.014648438 102.973632812 c 0
 186.220703125 44.0947265625 159.2265625 9.4609375 119.975585938 0.9990234375 c 0
 113.544921875 -0.3876953125 106.78515625 -1.0712890625 99.7705078125 -1.0439453125 c 0
 99.734375 -1.0439453125 99.69921875 -1.0439453125 99.6640625 -1.0439453125 c 0
 83.58203125 -0.9658203125 57.1494140625 1.6630859375 39.4794921875 16.388671875 c 0
 22.2490234375 30.74609375 -0.0029296875 56.97265625 15.9189453125 104.73828125 c 0
 17.2158203125 108.627929688 18.5849609375 112.060546875 19.9931640625 115.158203125 c 2
 57.0546875 101.565429688 l 2
 55.666015625 98.01953125 51.2587890625 89.8466796875 51.2587890625 81.1787109375 c 0
 51.2587890625 51.9228515625 81.669921875 46.482421875 96.974609375 48.0556640625 c 0
 98.6171875 48.224609375 100.0859375 48.474609375 101.32421875 48.7841796875 c 0
 124.883789062 54.6748046875 127.829101562 78.234375 127.829101562 104.740234375 c 2
 127.829101562 448.694335938 l 2
 127.829101562 475.200195312 124.883789062 498.759765625 101.32421875 504.650390625 c 0
 95.90234375 506.005859375 86.068359375 506.2109375 76.5419921875 503.5234375 c 0
 66.9013671875 500.803710938 57.576171875 495.12109375 53.458984375 484.670898438 c 0
 52.056640625 481.110351562 51.2587890625 476.99609375 51.2587890625 472.256835938 c 0
 51.2587890625 463.588867188 55.666015625 455.416015625 57.0546875 451.870117188 c 2
 19.9931640625 438.27734375 l 2
 18.5849609375 441.374023438 17.2158203125 444.807617188 15.9189453125 448.697265625 c 0
 -0.0029296875 496.462890625 22.2490234375 522.688476562 39.4794921875 537.046875 c 0
 57.1494140625 551.772460938 83.58203125 554.401367188 99.6640625 554.479492188 c 0
 148.02734375 554.715820312 184.299804688 521.151367188 184.119140625 456.602539062 c 1
 184.208984375 456.602539062 l 1
 184.099609375 363.65625 l 1
 183.990234375 270.709960938 l 1
 313.365234375 270.709960938 l 1
 313.365234375 108.733398438 l 2
 314.444335938 64.7041015625 316.091796875 48.9638671875 361.958007812 47.08984375 c 0
 407.82421875 48.9638671875 409.471679688 64.7041015625 410.55078125 108.733398438 c 0
 410.55078125 108.734375 410.55078125 108.735351562 410.55078125 108.735351562 c 1
 410.55078125 554.716796875 l 1
EndSplineSet
EndChar

StartChar: u16B5F
Encoding: 93023 93023 7
Width: 509
Flags: W
LayerCount: 2
Fore
SplineSet
459.411132812 287.63671875 m 1
 407.123046875 257.448242188 l 1
 372.577148438 317.284179688 l 1
 265.766601562 0.0009765625 l 1
 254.446289062 0.0009765625 l 1
 194.069335938 0.0009765625 l 1
 87.478515625 318.400390625 l 1
 52.2890625 257.44921875 l 1
 0.0009765625 287.637695312 l 1
 154.293945312 554.880859375 l 1
 206.58203125 524.692382812 l 1
 127.73046875 388.116210938 l 1
 227.9765625 81.0771484375 l 1
 332.306640625 387.036132812 l 1
 252.831054688 524.69140625 l 1
 305.119140625 554.879882812 l 1
 459.411132812 287.63671875 l 1
EndSplineSet
EndChar

StartChar: u16B61
Encoding: 93025 93025 8
Width: 653
Flags: W
LayerCount: 2
Fore
SplineSet
411.05078125 396.194335938 m 1
 411.05078125 396.194335938 455.323242188 396.1953125 471.92578125 393.428710938 c 0
 496.641601562 389.30859375 523.251953125 376.90234375 532.80078125 368.524414062 c 1
 505.129882812 318.717773438 l 1
 494.2890625 332.485351562 471.92578125 338.086914062 452.556640625 340.854492188 c 0
 432.5546875 343.7109375 411.165039062 341.547851562 411.165039062 341.547851562 c 1
 411.05078125 396.194335938 l 1
452.556640625 499.583007812 m 0
 432.5546875 502.440429688 411.165039062 500.278320312 411.165039062 500.278320312 c 1
 411.05078125 554.71875 l 1
 411.05078125 554.71875 455.323242188 554.924804688 471.92578125 552.157226562 c 0
 496.641601562 548.038085938 523.251953125 535.630859375 532.80078125 527.25390625 c 1
 505.129882812 477.446289062 l 1
 494.2890625 491.213867188 471.92578125 496.815429688 452.556640625 499.583007812 c 0
211.05078125 0.001953125 m 1
 211.05078125 554.71875 l 1
 271.427734375 554.71875 l 1
 271.427734375 0.001953125 l 1
 211.05078125 0.001953125 l 1
71.427734375 0.001953125 m 1
 71.427734375 554.71875 l 1
 131.8046875 554.71875 l 1
 131.8046875 0.001953125 l 1
 71.427734375 0.001953125 l 1
339.352539062 554.71875 m 1
 411.05078125 554.71875 l 1
 411.05078125 0.001953125 l 1
 339.352539062 0.001953125 l 1
 339.352539062 554.71875 l 1
EndSplineSet
EndChar

StartChar: quotesingle
Encoding: 39 39 9
Width: 110
Flags: W
LayerCount: 2
Fore
SplineSet
0 777.358398438 m 1
 60.376953125 777.358398438 l 1
 60.376953125 566.038085938 l 1
 0 566.038085938 l 1
 0 777.358398438 l 1
EndSplineSet
EndChar

StartChar: parenleft
Encoding: 40 40 10
Width: 418
Flags: W
LayerCount: 2
Fore
SplineSet
141.490234375 416.809570312 m 0
 132.426757812 302.926757812 149.357421875 75.3134765625 262.891601562 14.9912109375 c 1
 242.811523438 -42.6865234375 l 1
 -0 69.6142578125 1.146484375 681.669921875 256.150390625 770.412109375 c 1
 276.783203125 711.1484375 l 1
 183.944335938 671.409179688 149.399414062 516.181640625 141.490234375 416.809570312 c 0
EndSplineSet
EndChar

StartChar: parenright
Encoding: 41 41 11
Width: 389
Flags: W
LayerCount: 2
Fore
SplineSet
63.4892578125 770.412109375 m 1
 318.493164062 681.669921875 319.638671875 69.61328125 76.8271484375 -42.6875 c 1
 56.7470703125 14.990234375 l 1
 170.28125 75.3125 187.212890625 302.926757812 178.149414062 416.809570312 c 0
 170.240234375 516.181640625 135.6953125 671.409179688 42.8564453125 711.1484375 c 1
 63.4892578125 770.412109375 l 1
EndSplineSet
EndChar

StartChar: bar
Encoding: 124 124 12
Width: 201
Flags: W
LayerCount: 2
Fore
SplineSet
28.5712890625 720.754882812 m 1
 88.9482421875 720.754882812 l 1
 88.9482421875 -71.6982421875 l 1
 28.5712890625 -71.6982421875 l 1
 28.5712890625 720.754882812 l 1
EndSplineSet
EndChar

StartChar: plus
Encoding: 43 43 13
Width: 446
Flags: W
LayerCount: 2
Fore
SplineSet
396.2265625 313.208007812 m 1
 396.2265625 241.509765625 l 1
 233.962890625 241.509765625 l 1
 233.962890625 79.24609375 l 1
 162.264648438 79.24609375 l 1
 162.264648438 241.509765625 l 1
 0.0009765625 241.509765625 l 1
 0.0009765625 313.208007812 l 1
 162.264648438 313.208007812 l 1
 162.264648438 475.471679688 l 1
 233.962890625 475.471679688 l 1
 233.962890625 313.208007812 l 1
 396.2265625 313.208007812 l 1
EndSplineSet
EndChar

StartChar: comma
Encoding: 44 44 14
Width: 209
Flags: W
LayerCount: 2
Fore
SplineSet
86.716796875 156.9375 m 1
 139.399414062 153.717773438 l 1
 137.3984375 111.188476562 l 2
 137.361328125 110.4140625 137.323242188 109.639648438 137.283203125 108.865234375 c 0
 132.717773438 21.0712890625 93.73046875 -61.39453125 29.6083984375 -121.536132812 c 2
 28.568359375 -122.51171875 l 1
 0.0009765625 -105.662109375 l 1
 51.08203125 -48.345703125 80.18359375 30.8916015625 84.3232421875 108.125 c 0
 84.3623046875 108.857421875 84.3994140625 109.58984375 84.435546875 110.322265625 c 2
 86.716796875 156.9375 l 1
EndSplineSet
EndChar

StartChar: hyphen
Encoding: 45 45 15
Width: 359
Flags: W
LayerCount: 2
Fore
SplineSet
0 245.283203125 m 1
 309.43359375 245.283203125 l 1
 309.43359375 184.90625 l 1
 0 184.90625 l 1
 0 245.283203125 l 1
EndSplineSet
EndChar

StartChar: period
Encoding: 46 46 16
Width: 133
Flags: W
LayerCount: 2
Fore
SplineSet
83.0185546875 41.509765625 m 0
 83.0185546875 18.5849609375 64.4345703125 0.0009765625 41.509765625 0.0009765625 c 0
 18.5849609375 0.0009765625 0.0009765625 18.5849609375 0.0009765625 41.509765625 c 0
 0.0009765625 64.4345703125 18.5849609375 83.0185546875 41.509765625 83.0185546875 c 0
 64.4345703125 83.0185546875 83.0185546875 64.4345703125 83.0185546875 41.509765625 c 0
EndSplineSet
EndChar

StartChar: slash
Encoding: 47 47 17
Width: 355
Flags: W
LayerCount: 2
Fore
SplineSet
215.530273438 802.895507812 m 1
 285.098632812 785.549804688 l 1
 69.568359375 -78.89453125 l 1
 0 -61.548828125 l 1
 215.530273438 802.895507812 l 1
EndSplineSet
EndChar

StartChar: zero
Encoding: 48 48 18
Width: 507
Flags: W
LayerCount: 2
Fore
SplineSet
378.783203125 184.591796875 m 0
 382.4375 201.721679688 384.905273438 234.184570312 384.905273438 271.442382812 c 0
 384.905273438 308.700195312 382.4375 341.1640625 378.783203125 358.294921875 c 0
 378.745117188 358.495117188 378.696289062 358.692382812 378.657226562 358.892578125 c 0
 378.633789062 358.998046875 378.611328125 359.110351562 378.587890625 359.215820312 c 0
 363.955078125 434.090820312 302.23828125 490.311523438 228.301757812 490.311523438 c 0
 154.365234375 490.311523438 92.6484375 434.090820312 78.015625 359.215820312 c 0
 77.9921875 359.110351562 77.9697265625 358.998046875 77.9462890625 358.892578125 c 0
 77.9072265625 358.692382812 77.8583984375 358.495117188 77.8203125 358.294921875 c 0
 74.166015625 341.1640625 71.6982421875 308.700195312 71.6982421875 271.442382812 c 0
 71.6982421875 234.184570312 74.166015625 201.720703125 77.8203125 184.590820312 c 0
 77.8583984375 184.389648438 77.9072265625 184.193359375 77.9462890625 183.9921875 c 0
 77.9697265625 183.88671875 77.9921875 183.774414062 78.015625 183.668945312 c 0
 92.6484375 108.793945312 154.365234375 52.5732421875 228.301757812 52.5732421875 c 0
 302.23828125 52.5732421875 363.955078125 108.793945312 378.587890625 183.668945312 c 0
 378.611328125 183.774414062 378.633789062 183.88671875 378.657226562 183.993164062 c 0
 378.696289062 184.194335938 378.745117188 184.390625 378.783203125 184.591796875 c 0
447.677734375 381.504882812 m 0
 453.005859375 359.797851562 456.603515625 318.657226562 456.603515625 271.443359375 c 0
 456.603515625 224.229492188 453.005859375 183.088867188 447.677734375 161.381835938 c 0
 447.622070312 161.127929688 447.551757812 160.87890625 447.495117188 160.625 c 0
 447.4609375 160.490234375 447.427734375 160.348632812 447.393554688 160.215820312 c 0
 426.061523438 65.33203125 336.087890625 -5.9140625 228.30078125 -5.9140625 c 0
 120.513671875 -5.9140625 30.5400390625 65.33203125 9.2080078125 160.215820312 c 0
 9.173828125 160.348632812 9.140625 160.490234375 9.1064453125 160.625 c 0
 9.0498046875 160.87890625 8.9794921875 161.127929688 8.923828125 161.381835938 c 0
 3.595703125 183.088867188 -0.001953125 224.229492188 -0.001953125 271.443359375 c 0
 -0.001953125 318.657226562 3.595703125 359.797851562 8.923828125 381.504882812 c 0
 8.9794921875 381.758789062 9.0498046875 382.0078125 9.1064453125 382.26171875 c 0
 9.140625 382.396484375 9.173828125 382.538085938 9.2080078125 382.670898438 c 0
 30.5400390625 477.5546875 120.513671875 548.80078125 228.30078125 548.80078125 c 0
 336.087890625 548.80078125 426.061523438 477.5546875 447.393554688 382.670898438 c 0
 447.427734375 382.538085938 447.4609375 382.396484375 447.495117188 382.26171875 c 0
 447.551757812 382.0078125 447.622070312 381.758789062 447.677734375 381.504882812 c 0
EndSplineSet
EndChar

StartChar: one
Encoding: 49 49 19
Width: 389
Flags: W
LayerCount: 2
Fore
SplineSet
196.91796875 548.831054688 m 1
 268.6171875 548.831054688 l 1
 268.6171875 -5.8857421875 l 1
 196.918945312 -5.8857421875 l 1
 196.918945312 475.018554688 l 1
 62.6943359375 383.067382812 l 1
 28.5712890625 432.877929688 l 1
 196.91796875 548.831054688 l 1
EndSplineSet
EndChar

StartChar: two
Encoding: 50 50 20
Width: 509
Flags: W
LayerCount: 2
Fore
SplineSet
411.260742188 298.8671875 m 1
 411.260742188 298.8671875 213.94921875 144.301757812 108.569335938 67.1103515625 c 1
 456.1875 67.1103515625 l 1
 456.1875 -4.587890625 l 1
 -0.0009765625 -4.587890625 l 1
 -0.0009765625 65.5537109375 l 1
 0.5322265625 65.8203125 l 1
 324.860351562 310.430664062 l 1
 325.041015625 310.40625 l 1
 352.196289062 333.77734375 387.908203125 368.358398438 389.745117188 393.913085938 c 0
 393.321289062 443.665039062 364.829101562 479.512695312 307.560546875 490.879882812 c 0
 282.143554688 495.924804688 255.750976562 497.356445312 229.564453125 497.8984375 c 0
 77.201171875 493.760742188 59.15234375 455.690429688 65.6640625 374.010742188 c 1
 0.0009765625 374.010742188 l 1
 0.0009765625 418.084960938 l 2
 0.0009765625 489.424804688 30.9560546875 547.103515625 212.8359375 547.408203125 c 0
 216.278320312 547.650390625 219.912109375 547.416015625 224.30859375 547.4140625 c 0
 240.032226562 547.407226562 259.767578125 547.052734375 275.471679688 546.352539062 c 0
 328.559570312 543.984375 386.439453125 537.02734375 422.653320312 500.684570312 c 0
 454.610351562 468.614257812 459.301757812 421.731445312 455.471679688 381.624023438 c 0
 452.404296875 349.497070312 437.455078125 319.735351562 411.065429688 299.041015625 c 0
 411.010742188 298.998046875 410.951171875 298.958007812 410.896484375 298.916015625 c 2
 411.260742188 298.8671875 l 1
EndSplineSet
EndChar

StartChar: three
Encoding: 51 51 21
Width: 510
Flags: W
LayerCount: 2
Fore
SplineSet
460.376953125 555.12109375 m 1
 460.375 483.419921875 l 1
 264.067382812 346.823242188 l 2
 267.954101562 346.630859375 271.856445312 346.397460938 275.767578125 346.12109375 c 0
 283.58984375 345.56640625 291.4453125 344.833984375 299.26953125 343.89453125 c 0
 303.181640625 343.424804688 307.0859375 342.90234375 310.974609375 342.325195312 c 0
 318.751953125 341.169921875 326.465820312 339.791992188 334.052734375 338.161132812 c 0
 341.639648438 336.529296875 349.099609375 334.64453125 356.368164062 332.4765625 c 0
 387.952148438 323.056640625 413.953125 301.358398438 431.9609375 274.640625 c 0
 439.838867188 262.951171875 446.1875 250.301757812 450.803710938 237.298828125 c 0
 451.462890625 235.44140625 452.086914062 233.576171875 452.674804688 231.706054688 c 0
 457.379882812 216.744140625 459.786132812 201.435546875 459.590820312 186.685546875 c 0
 459.459960938 176.8359375 459.344726562 167.59375 459.014648438 158.799804688 c 0
 457.583984375 120.6953125 452.106445312 91.0283203125 423.755859375 57.0048828125 c 0
 415.106445312 46.625 405.557617188 38.2255859375 395.310546875 31.404296875 c 0
 390.918945312 28.4814453125 386.399414062 25.84765625 381.766601562 23.47265625 c 0
 374.045898438 19.5146484375 366.012695312 16.2734375 357.740234375 13.6025390625 c 0
 352.776367188 12 347.7265625 10.603515625 342.606445312 9.380859375 c 0
 340.899414062 8.97265625 339.184570312 8.5849609375 337.462890625 8.21484375 c 0
 328.853515625 6.3642578125 320.063476562 4.9677734375 311.165039062 3.8779296875 c 0
 307.60546875 3.44140625 304.029296875 3.0546875 300.440429688 2.70703125 c 0
 296.8515625 2.3603515625 293.25 2.052734375 289.639648438 1.775390625 c 0
 282.419921875 1.220703125 275.168945312 0.7890625 267.922851562 0.40234375 c 0
 266.634765625 0.333984375 265.280273438 0.27734375 263.895507812 0.228515625 c 0
 263.48828125 0.2138671875 263.0703125 0.2021484375 262.655273438 0.189453125 c 0
 261.595703125 0.1572265625 260.515625 0.1279296875 259.412109375 0.1044921875 c 0
 259.010742188 0.0966796875 258.614257812 0.087890625 258.208007812 0.080078125 c 0
 256.779296875 0.0546875 255.328125 0.0341796875 253.84375 0.021484375 c 0
 253.782226562 0.0205078125 253.723632812 0.01953125 253.662109375 0.0185546875 c 0
 252.103515625 0.005859375 250.513671875 0.0009765625 248.91015625 0 c 0
 248.764648438 -0 248.625 -0.001953125 248.479492188 -0.001953125 c 0
 248.169921875 -0.001953125 247.852539062 0.0009765625 247.541992188 0.0009765625 c 0
 246.341796875 0.0029296875 245.135742188 0.0068359375 243.919921875 0.013671875 c 0
 243.448242188 0.0166015625 242.979492188 0.0185546875 242.506835938 0.0224609375 c 0
 241.071289062 0.03125 239.6328125 0.04296875 238.190429688 0.0576171875 c 0
 237.995117188 0.060546875 237.801757812 0.0615234375 237.607421875 0.0634765625 c 0
 235.942382812 0.0810546875 234.280273438 0.1015625 232.623046875 0.1240234375 c 0
 232.204101562 0.1298828125 231.791015625 0.1357421875 231.374023438 0.1416015625 c 0
 230.005859375 0.16015625 228.6484375 0.1787109375 227.298828125 0.19921875 c 0
 225.625976562 0.2236328125 223.9765625 0.2470703125 222.348632812 0.2705078125 c 0
 222.1328125 0.2734375 221.911132812 0.2763671875 221.696289062 0.2802734375 c 0
 220.1875 0.30078125 218.712890625 0.3203125 217.259765625 0.337890625 c 0
 216.810546875 0.34375 216.375 0.34765625 215.931640625 0.353515625 c 0
 214.852539062 0.3642578125 213.794921875 0.375 212.756835938 0.3828125 c 0
 212.310546875 0.38671875 211.866210938 0.390625 211.428710938 0.3935546875 c 0
 210.236328125 0.4013671875 209.078125 0.4052734375 207.955078125 0.4072265625 c 0
 207.703125 0.4072265625 207.434570312 0.4091796875 207.186523438 0.4091796875 c 0
 205.577148438 0.4091796875 204.064453125 0.3740234375 202.619140625 0.33984375 c 0
 201.567382812 0.3154296875 200.545898438 0.2998046875 199.55859375 0.2900390625 c 0
 199.239257812 0.2861328125 198.892578125 0.2734375 198.578125 0.2734375 c 0
 198.477539062 0.2734375 198.385742188 0.283203125 198.286132812 0.283203125 c 0
 197.076171875 0.2890625 195.889648438 0.3154296875 194.73828125 0.4091796875 c 2
 150 0.4091796875 l 2
 49.056640625 0.4091796875 -0 0.4091796875 3.7734375 147.579101562 c 1
 64.150390625 147.579101562 l 1
 64.150390625 113.6171875 68.8671875 95.119140625 81.130859375 84.92578125 c 0
 82.6640625 83.6513671875 84.3154296875 82.5078125 86.08984375 81.478515625 c 0
 86.9765625 80.96484375 87.89453125 80.4794921875 88.84375 80.021484375 c 0
 101.188476562 74.06640625 118.865234375 72.70703125 143.392578125 72.1064453125 c 0
 144.098632812 72.0888671875 144.85546875 72.0732421875 145.641601562 72.05859375 c 0
 145.942382812 72.052734375 146.267578125 72.0478515625 146.579101562 72.0419921875 c 0
 147.120117188 72.033203125 147.662109375 72.025390625 148.234375 72.017578125 c 0
 148.541015625 72.0126953125 148.862304688 72.0087890625 149.177734375 72.0048828125 c 0
 149.748046875 71.9970703125 150.325195312 71.9892578125 150.920898438 71.982421875 c 0
 151.303710938 71.978515625 151.6953125 71.974609375 152.087890625 71.970703125 c 0
 152.6953125 71.9638671875 153.310546875 71.958984375 153.939453125 71.9541015625 c 0
 154.29296875 71.9501953125 154.6484375 71.9482421875 155.0078125 71.9453125 c 0
 155.6796875 71.9404296875 156.362304688 71.9365234375 157.053710938 71.9326171875 c 0
 157.407226562 71.9296875 157.758789062 71.927734375 158.116210938 71.9267578125 c 0
 158.875976562 71.9228515625 159.6484375 71.9189453125 160.426757812 71.9169921875 c 0
 160.741210938 71.9150390625 161.051757812 71.9140625 161.369140625 71.9130859375 c 0
 162.213867188 71.91015625 163.0703125 71.9091796875 163.9296875 71.9072265625 c 0
 164.186523438 71.9072265625 164.439453125 71.90625 164.697265625 71.9052734375 c 0
 165.830078125 71.904296875 166.971679688 71.9033203125 168.120117188 71.9033203125 c 0
 169.854492188 71.9033203125 171.6015625 71.9052734375 173.34375 71.908203125 c 0
 173.518554688 71.9091796875 173.693359375 71.9091796875 173.868164062 71.9091796875 c 0
 179.333007812 71.9189453125 184.737304688 71.9423828125 189.561523438 71.96875 c 0
 189.98046875 72.0087890625 190.40625 72.0966796875 190.8203125 72.1015625 c 0
 199.751953125 72.20703125 208.689453125 72.2919921875 217.629882812 72.412109375 c 0
 235.510742188 72.650390625 253.405273438 73.02734375 271.291992188 73.974609375 c 0
 280.235351562 74.447265625 289.176757812 75.0634765625 298.114257812 75.8759765625 c 0
 311.0859375 77.0556640625 324.794921875 79.708984375 337.487304688 85.21875 c 0
 340.026367188 86.3203125 342.524414062 87.5361328125 344.967773438 88.8779296875 c 0
 348.6328125 90.8896484375 352.174804688 93.18359375 355.545898438 95.7958984375 c 0
 357.793945312 97.5390625 359.965820312 99.421875 362.047851562 101.459960938 c 0
 363.088867188 102.477539062 364.107421875 103.534179688 365.1015625 104.630859375 c 0
 368.084960938 107.919921875 370.850585938 111.565429688 373.350585938 115.60546875 c 0
 374.184570312 116.951171875 374.98828125 118.341796875 375.76171875 119.77734375 c 0
 377.307617188 122.6484375 378.728515625 125.700195312 380.010742188 128.943359375 c 0
 380.651367188 130.564453125 381.2578125 132.233398438 381.828125 133.952148438 c 0
 385.81640625 145.982421875 388.018554688 160.427734375 387.83203125 177.762695312 c 0
 387.755859375 184.853515625 387.075195312 191.741210938 385.833984375 198.383789062 c 0
 382.729492188 214.991210938 376.118164062 230.069335938 366.671875 242.983398438 c 0
 364.782226562 245.565429688 362.779296875 248.0625 360.668945312 250.465820312 c 0
 358.557617188 252.870117188 356.338867188 255.18359375 354.017578125 257.399414062 c 0
 349.375 261.83203125 344.321289062 265.876953125 338.900390625 269.494140625 c 0
 337.544921875 270.3984375 336.166015625 271.275390625 334.765625 272.125976562 c 0
 330.564453125 274.67578125 326.163085938 276.98046875 321.578125 279.021484375 c 0
 312.409179688 283.102539062 302.509765625 286.130859375 292.026367188 287.967773438 c 0
 287.833007812 288.702148438 283.631835938 289.2578125 279.423828125 289.676757812 c 0
 275.215820312 290.095703125 271.000976562 290.379882812 266.780273438 290.571289062 c 0
 260.44921875 290.858398438 254.10546875 290.938476562 247.750976562 290.961914062 c 0
 245.6328125 290.969726562 243.513671875 290.970703125 241.393554688 290.970703125 c 0
 230.392578125 290.970703125 207.654296875 290.970703125 205.749023438 290.970703125 c 0
 205.731445312 290.970703125 205.688476562 290.970703125 205.673828125 290.970703125 c 0
 205.666015625 290.970703125 205.637695312 290.970703125 205.630859375 290.970703125 c 0
 204.03515625 290.970703125 184.905273438 290.970703125 184.905273438 290.970703125 c 2
 184.905273438 291.17578125 184.905273438 291.44921875 184.905273438 291.741210938 c 2
 184.787109375 291.658203125 l 1
 163.16015625 314.672851562 l 1
 143.440429688 335.657226562 l 1
 352.80859375 483.422851562 l 1
 3.7734375 483.422851562 l 1
 3.7734375 555.12109375 l 1
 460.376953125 555.12109375 l 1
EndSplineSet
EndChar

StartChar: four
Encoding: 52 52 22
Width: 507
Flags: W
LayerCount: 2
Fore
SplineSet
82.5615234375 197.887695312 m 1
 316.981445312 197.887695312 l 1
 316.981445312 454.430664062 l 1
 82.5615234375 197.887695312 l 1
456.603515625 197.887695312 m 1
 456.603515625 126.189453125 l 1
 388.678710938 126.189453125 l 1
 388.678710938 -5.8857421875 l 1
 316.98046875 -5.8857421875 l 1
 316.98046875 126.189453125 l 1
 16.0849609375 126.189453125 l 1
 -0.0009765625 197.887695312 l 1
 -0.0009765625 197.887695312 l 1
 -0.0009765625 197.887695312 l 1
 316.98046875 548.831054688 l 1
 316.98046875 548.831054688 l 1
 388.678710938 548.831054688 l 1
 388.678710938 197.887695312 l 1
 456.603515625 197.887695312 l 1
EndSplineSet
EndChar

StartChar: five
Encoding: 53 53 23
Width: 510
Flags: W
LayerCount: 2
Fore
SplineSet
455.821289062 208.506835938 m 0
 460.002929688 156.138671875 454.879882812 94.9228515625 419.986328125 53.048828125 c 0
 380.444335938 5.595703125 312.859375 -3.73046875 254.892578125 -6.822265625 c 0
 250.190429688 -7.0732421875 243.624023438 -7.2685546875 236.2265625 -7.34765625 c 0
 223.610351562 -7.75390625 210.983398438 -7.7412109375 198.375 -7.095703125 c 0
 29.8486328125 1.5380859375 -0.0009765625 73.3427734375 -0.0009765625 160.901367188 c 2
 -0.0009765625 199.581054688 l 1
 71.697265625 199.581054688 l 1
 64.486328125 91.4091796875 98.7177734375 52.1796875 259.787109375 58.77734375 c 0
 271.516601562 59.8330078125 284.081054688 61.3935546875 298.112304688 63.7314453125 c 0
 361.506835938 74.296875 390.05859375 127.661132812 384.0546875 192.462890625 c 0
 378.8203125 248.954101562 344.1640625 284.895507812 288.250976562 294.69140625 c 0
 271.477539062 297.629882812 254.581054688 297.693359375 237.619140625 297.693359375 c 0
 226.618164062 297.693359375 203.879882812 297.693359375 201.974609375 297.693359375 c 0
 201.956054688 297.693359375 201.913085938 297.693359375 201.899414062 297.693359375 c 0
 201.891601562 297.693359375 201.864257812 297.693359375 201.857421875 297.693359375 c 0
 200.26171875 297.693359375 181.131835938 297.693359375 181.131835938 297.693359375 c 1
 0 297.693359375 l 1
 0 342.9765625 l 1
 0 358.071289062 l 1
 0 478.826171875 l 1
 0 482.599609375 l 1
 -0 550.524414062 l 1
 456.603515625 550.524414062 l 1
 456.603515625 478.826171875 l 1
 71.6982421875 478.826171875 l 1
 71.6982421875 358.071289062 l 1
 233.961914062 358.071289062 l 2
 273.999023438 358.071289062 313.6875 359.171875 352.59765625 347.567382812 c 0
 415.766601562 328.727539062 450.737304688 272.173828125 455.821289062 208.506835938 c 0
EndSplineSet
EndChar

StartChar: six
Encoding: 54 54 24
Width: 522
Flags: W
LayerCount: 2
Fore
SplineSet
331.524414062 33.9755859375 m 0
 370.08203125 41.2451171875 399.528320312 78.298828125 400.340820312 123.224609375 c 0
 399.528320312 168.150390625 370.08203125 205.204101562 331.524414062 212.473632812 c 0
 311.065429688 217.887695312 280.215820312 221.336914062 245.700195312 221.336914062 c 0
 211.18359375 221.336914062 180.334960938 217.887695312 159.875 212.473632812 c 0
 121.317382812 205.204101562 91.8720703125 168.150390625 91.0595703125 123.224609375 c 0
 91.8720703125 78.298828125 121.317382812 41.2451171875 159.875 33.9755859375 c 0
 180.334960938 28.5615234375 211.18359375 25.1123046875 245.700195312 25.1123046875 c 0
 280.215820312 25.1123046875 311.065429688 28.5615234375 331.524414062 33.9755859375 c 0
472.102539062 123.854492188 m 0
 472.103515625 123.645507812 472.106445312 123.443359375 472.106445312 123.234375 c 0
 472.106445312 123.025390625 472.096679688 122.814453125 472.095703125 122.60546875 c 0
 472.076171875 114.94140625 471.653320312 107.369140625 470.922851562 100.026367188 c 0
 469.625 86.970703125 466.23046875 74.3310546875 460.897460938 62.498046875 c 0
 455.377929688 49.515625 447.536132812 37.349609375 436.587890625 26.7958984375 c 0
 429.573242188 20.033203125 421.627929688 14.2880859375 413 9.380859375 c 0
 401.877929688 2.759765625 389.158203125 -2.5078125 374.939453125 -6.193359375 c 0
 374.415039062 -6.34375 373.885742188 -6.4833984375 373.359375 -6.630859375 c 0
 372.903320312 -6.7431640625 372.479492188 -6.890625 372.020507812 -7.0009765625 c 0
 371.8984375 -7.0302734375 371.771484375 -7.048828125 371.649414062 -7.0771484375 c 0
 341.723632812 -15.216796875 308.705078125 -17.984375 278.405273438 -19.2822265625 c 0
 261.975585938 -19.986328125 245.528320312 -20.15625 229.078125 -20.1630859375 c 0
 229.071289062 -20.1630859375 229.064453125 -20.1630859375 229.057617188 -20.1630859375 c 0
 228.69921875 -20.1630859375 228.212890625 -20.154296875 227.756835938 -20.146484375 c 0
 227.513671875 -20.142578125 227.333007812 -20.1435546875 227.064453125 -20.1376953125 c 0
 226.53515625 -20.1259765625 225.895507812 -20.10546875 225.274414062 -20.0869140625 c 0
 224.9765625 -20.078125 224.731445312 -20.0732421875 224.4140625 -20.0625 c 0
 223.807617188 -20.0419921875 223.109375 -20.0126953125 222.436523438 -19.986328125 c 0
 222.0234375 -19.9697265625 221.65625 -19.958984375 221.220703125 -19.939453125 c 0
 220.830078125 -19.9228515625 220.384765625 -19.8994140625 219.977539062 -19.880859375 c 0
 217.993164062 -19.791015625 215.861328125 -19.6845703125 213.55859375 -19.5517578125 c 0
 213.333007812 -19.5390625 213.091796875 -19.5224609375 212.864257812 -19.509765625 c 0
 208.888671875 -19.2763671875 204.587890625 -18.9873046875 200.280273438 -18.640625 c 0
 173.536132812 -17.1123046875 145.366210938 -14.0859375 119.518554688 -7.033203125 c 0
 119.467773438 -7.021484375 119.416015625 -7.013671875 119.366210938 -7.001953125 c 0
 103.73828125 -3.2578125 89.9482421875 2.451171875 77.951171875 9.66015625 c 0
 69.498046875 14.5087890625 61.69140625 20.1494140625 54.7978515625 26.7939453125 c 0
 43.8505859375 37.34765625 36.0078125 49.513671875 30.4892578125 62.49609375 c 0
 26.2109375 71.98828125 23.244140625 82.013671875 21.54296875 92.3408203125 c 0
 -0.0048828125 190.29296875 16.763671875 364.7421875 16.763671875 364.7421875 c 1
 16.763671875 364.7421875 16.83984375 364.815429688 16.95703125 364.928710938 c 0
 19.8876953125 404.27734375 33.4384765625 444.372070312 58.2734375 474.17578125 c 0
 97.8154296875 521.62890625 160.506835938 530.318359375 218.473632812 533.41015625 c 0
 224.885742188 533.751953125 229.666015625 533.997070312 234.037109375 534.169921875 c 2
 239.405273438 534.552734375 l 2
 241.763671875 534.552734375 244.0234375 534.508789062 246.334960938 534.487304688 c 0
 249.762695312 534.53125 253.572265625 534.55078125 258.272460938 534.552734375 c 0
 258.280273438 534.552734375 258.288085938 534.552734375 258.295898438 534.552734375 c 0
 258.466796875 534.552734375 258.6953125 534.546875 258.888671875 534.544921875 c 0
 259.16796875 534.541992188 259.424804688 534.541015625 259.749023438 534.534179688 c 0
 259.887695312 534.53125 260.063476562 534.5234375 260.209960938 534.51953125 c 0
 260.640625 534.509765625 261.071289062 534.499023438 261.565429688 534.481445312 c 0
 261.953125 534.46875 262.396484375 534.44921875 262.8203125 534.431640625 c 0
 263.125 534.418945312 263.40234375 534.41015625 263.725585938 534.396484375 c 0
 263.975585938 534.385742188 264.260742188 534.370117188 264.521484375 534.358398438 c 0
 268.272460938 534.180664062 273.026367188 533.887695312 278.19921875 533.484375 c 0
 406.428710938 526.216796875 453.096679688 481.788085938 467.619140625 421.724609375 c 1
 395.340820312 391.157226562 l 1
 374.217773438 438.096679688 350.161132812 458.75390625 303.840820312 466.76171875 c 0
 292.416015625 468.4921875 281.45703125 469.643554688 270.920898438 470.291992188 c 0
 268.572265625 470.42578125 266.200195312 470.549804688 263.759765625 470.651367188 c 0
 263.666992188 470.655273438 263.572265625 470.661132812 263.479492188 470.665039062 c 0
 261.927734375 470.727539062 260.307617188 470.768554688 258.717773438 470.819335938 c 0
 255.43359375 470.903320312 252.206054688 470.922851562 249.006835938 470.91015625 c 0
 247.63671875 470.904296875 246.291015625 470.872070312 244.936523438 470.848632812 c 0
 242.919921875 470.815429688 240.907226562 470.776367188 238.922851562 470.705078125 c 0
 237.53125 470.65625 236.15625 470.586914062 234.780273438 470.51953125 c 0
 232.874023438 470.426757812 230.9765625 470.323242188 229.100585938 470.197265625 c 0
 227.724609375 470.104492188 226.358398438 470.000976562 224.999023438 469.891601562 c 0
 223.154296875 469.7421875 221.325195312 469.577148438 219.509765625 469.397460938 c 0
 218.174804688 469.264648438 216.842773438 469.127929688 215.522460938 468.978515625 c 0
 213.708984375 468.774414062 211.916015625 468.548828125 210.130859375 468.314453125 c 0
 208.859375 468.147460938 207.584960938 467.984375 206.328125 467.802734375 c 0
 204.494140625 467.538085938 202.685546875 467.247070312 200.880859375 466.951171875 c 0
 199.71875 466.76171875 198.546875 466.58203125 197.397460938 466.37890625 c 0
 195.419921875 466.03125 193.473632812 465.65234375 191.530273438 465.26953125 c 0
 190.59375 465.084960938 189.641601562 464.915039062 188.712890625 464.72265625 c 0
 185.856445312 464.1328125 183.032226562 463.510742188 180.249023438 462.850585938 c 0
 131.583007812 451.299804688 102.1953125 424.072265625 89.7705078125 363.194335938 c 0
 79.4560546875 304.708984375 84.2900390625 244.907226562 84.669921875 240.48046875 c 1
 95.041015625 245.939453125 106.555664062 250.391601562 119.374023438 253.461914062 c 0
 119.422851562 253.473632812 119.474609375 253.481445312 119.5234375 253.493164062 c 0
 145.372070312 260.545898438 173.54296875 263.572265625 200.288085938 265.100585938 c 0
 204.778320312 265.461914062 209.2734375 265.762695312 213.385742188 266 c 0
 213.442382812 266.00390625 213.50390625 266.0078125 213.560546875 266.01171875 c 0
 215.99609375 266.151367188 218.254882812 266.263671875 220.330078125 266.356445312 c 0
 220.620117188 266.369140625 220.943359375 266.38671875 221.224609375 266.3984375 c 0
 221.762695312 266.421875 222.221679688 266.4375 222.724609375 266.45703125 c 0
 223.293945312 266.479492188 223.900390625 266.504882812 224.420898438 266.522460938 c 0
 224.764648438 266.534179688 225.03125 266.540039062 225.352539062 266.548828125 c 0
 225.946289062 266.567382812 226.564453125 266.586914062 227.072265625 266.59765625 c 0
 227.344726562 266.603515625 227.528320312 266.602539062 227.774414062 266.606445312 c 0
 228.225585938 266.614257812 228.708984375 266.623046875 229.064453125 266.623046875 c 0
 229.071289062 266.623046875 229.078125 266.623046875 229.084960938 266.623046875 c 0
 245.53515625 266.616210938 261.982421875 266.446289062 278.412109375 265.7421875 c 0
 308.711914062 264.444335938 341.73046875 261.676757812 371.65625 253.537109375 c 0
 371.778320312 253.508789062 371.905273438 253.490234375 372.02734375 253.4609375 c 0
 372.486328125 253.350585938 372.91015625 253.203125 373.366210938 253.090820312 c 0
 373.892578125 252.943359375 374.421875 252.803710938 374.946289062 252.653320312 c 0
 389.165039062 248.967773438 401.884765625 243.700195312 413.006835938 237.079101562 c 0
 421.634765625 232.171875 429.580078125 226.426757812 436.594726562 219.6640625 c 0
 447.54296875 209.110351562 455.384765625 196.944335938 460.904296875 183.961914062 c 0
 466.237304688 172.12890625 469.631835938 159.489257812 470.9296875 146.43359375 c 0
 471.66015625 139.090820312 472.083007812 131.518554688 472.102539062 123.854492188 c 0
EndSplineSet
EndChar

StartChar: seven
Encoding: 55 55 25
Width: 503
Flags: W
LayerCount: 2
Fore
SplineSet
0 548.831054688 m 1
 452.830078125 548.831054688 l 1
 452.830078125 477.1328125 l 1
 200 -5.8857421875 l 1
 116.981445312 -5.8857421875 l 1
 368.91796875 477.1328125 l 1
 0 477.1328125 l 1
 0 548.831054688 l 1
EndSplineSet
EndChar

StartChar: eight
Encoding: 56 56 26
Width: 565
Flags: W
LayerCount: 2
Fore
SplineSet
329.348632812 48.26171875 m 0
 368.44921875 55.6337890625 398.241210938 93.6181640625 398.241210938 139.397460938 c 0
 398.241210938 185.176757812 368.44921875 223.161132812 329.348632812 230.533203125 c 0
 308.889648438 235.947265625 278.040039062 239.396484375 243.524414062 239.396484375 c 0
 209.0078125 239.396484375 178.159179688 235.947265625 157.69921875 230.533203125 c 0
 118.59765625 223.161132812 88.806640625 185.176757812 88.806640625 139.397460938 c 0
 88.806640625 93.6181640625 118.59765625 55.6337890625 157.69921875 48.26171875 c 0
 178.159179688 42.84765625 209.0078125 39.3984375 243.524414062 39.3984375 c 0
 278.040039062 39.3984375 308.889648438 42.84765625 329.348632812 48.26171875 c 0
88.806640625 403.548828125 m 0
 88.806640625 357.76953125 118.59765625 319.78515625 157.69921875 312.413085938 c 0
 178.159179688 306.999023438 209.0078125 303.549804688 243.524414062 303.549804688 c 0
 278.040039062 303.549804688 308.889648438 306.999023438 329.348632812 312.413085938 c 0
 368.44921875 319.78515625 398.241210938 357.76953125 398.241210938 403.548828125 c 0
 398.241210938 449.328125 368.44921875 487.3125 329.348632812 494.684570312 c 0
 308.889648438 500.098632812 278.040039062 503.547851562 243.524414062 503.547851562 c 0
 209.0078125 503.547851562 178.159179688 500.098632812 157.69921875 494.684570312 c 0
 118.59765625 487.3125 88.806640625 449.328125 88.806640625 403.548828125 c 0
369.850585938 267.74609375 m 0
 430.375976562 253.24609375 463.884765625 209.72265625 468.755859375 160.72265625 c 0
 472.762695312 120.41796875 467.854492188 73.3046875 434.420898438 41.076171875 c 0
 396.533203125 4.5556640625 331.77734375 -2.6220703125 276.236328125 -5.001953125 c 0
 259.806640625 -5.7060546875 243.359375 -5.8759765625 226.909179688 -5.8828125 c 0
 222.499023438 -5.884765625 210.267578125 -5.337890625 198.11328125 -4.3603515625 c 0
 145.66015625 -1.36328125 87.6630859375 7.3037109375 52.62890625 41.07421875 c 0
 19.1953125 73.302734375 14.287109375 120.416015625 18.2939453125 160.720703125 c 0
 23.166015625 209.720703125 56.6728515625 253.247070312 117.198242188 267.747070312 c 0
 124.060546875 269.390625 131.107421875 270.587890625 138.266601562 271.474609375 c 1
 131.107421875 272.362304688 124.060546875 273.55859375 117.198242188 275.202148438 c 0
 56.6728515625 289.702148438 23.166015625 333.228515625 18.2939453125 382.228515625 c 0
 14.287109375 422.533203125 19.1953125 469.646484375 52.62890625 501.875 c 0
 87.666015625 535.6484375 145.670898438 544.315429688 198.126953125 547.311523438 c 0
 210.27734375 548.2890625 222.5 548.834960938 226.908203125 548.833007812 c 0
 243.358398438 548.826171875 259.805664062 548.65625 276.235351562 547.952148438 c 0
 331.776367188 545.572265625 396.532226562 538.39453125 434.419921875 501.874023438 c 0
 467.853515625 469.645507812 472.76171875 422.532226562 468.754882812 382.227539062 c 0
 463.883789062 333.227539062 430.375976562 289.701171875 369.850585938 275.201171875 c 0
 362.98828125 273.557617188 355.94140625 272.361328125 348.782226562 271.473632812 c 1
 355.94140625 270.586914062 362.98828125 269.389648438 369.850585938 267.74609375 c 0
EndSplineSet
EndChar

StartChar: nine
Encoding: 57 57 27
Width: 522
Flags: W
LayerCount: 2
Fore
SplineSet
312.239257812 316.185546875 m 0
 350.796875 323.455078125 380.2421875 360.508789062 381.0546875 405.434570312 c 0
 380.2421875 450.360351562 350.796875 487.4140625 312.239257812 494.68359375 c 0
 291.779296875 500.09765625 260.930664062 503.546875 226.4140625 503.546875 c 0
 191.897460938 503.546875 161.048828125 500.09765625 140.588867188 494.68359375 c 0
 102.03125 487.4140625 72.5859375 450.360351562 71.7734375 405.434570312 c 0
 72.5859375 360.508789062 102.03125 323.455078125 140.588867188 316.185546875 c 0
 161.048828125 310.771484375 191.897460938 307.322265625 226.4140625 307.322265625 c 0
 260.930664062 307.322265625 291.779296875 310.771484375 312.239257812 316.185546875 c 0
450.565429688 436.327148438 m 0
 472.11328125 338.375 455.345703125 163.91796875 455.345703125 163.91796875 c 1
 455.345703125 163.91796875 455.268554688 163.844726562 455.151367188 163.731445312 c 0
 452.221679688 124.3828125 438.670898438 84.2880859375 413.836914062 54.484375 c 0
 374.293945312 7.0322265625 311.602539062 -1.6572265625 253.635742188 -4.7490234375 c 0
 247.223632812 -5.0908203125 242.443359375 -5.3359375 238.073242188 -5.5087890625 c 2
 232.705078125 -5.8916015625 l 2
 230.346679688 -5.8916015625 228.086914062 -5.84765625 225.775390625 -5.826171875 c 0
 222.34765625 -5.8701171875 218.537109375 -5.8896484375 213.837890625 -5.8916015625 c 0
 213.830078125 -5.8916015625 213.822265625 -5.8916015625 213.814453125 -5.8916015625 c 0
 213.643554688 -5.8916015625 213.415039062 -5.8857421875 213.221679688 -5.8837890625 c 0
 212.942382812 -5.880859375 212.685546875 -5.8798828125 212.361328125 -5.873046875 c 0
 212.22265625 -5.8701171875 212.046875 -5.8623046875 211.900390625 -5.8583984375 c 0
 211.469726562 -5.8486328125 211.0390625 -5.837890625 210.544921875 -5.8203125 c 0
 210.157226562 -5.8076171875 209.71484375 -5.7880859375 209.291015625 -5.7705078125 c 0
 208.986328125 -5.7578125 208.708984375 -5.7490234375 208.385742188 -5.7353515625 c 0
 208.135742188 -5.724609375 207.850585938 -5.708984375 207.58984375 -5.697265625 c 0
 203.838867188 -5.51953125 199.084960938 -5.2265625 193.912109375 -4.8232421875 c 0
 65.68359375 2.4443359375 19.015625 46.873046875 4.494140625 106.936523438 c 1
 76.7724609375 137.50390625 l 1
 97.8955078125 90.564453125 121.952148438 69.9072265625 168.272460938 61.8994140625 c 0
 179.697265625 60.1689453125 190.65625 59.017578125 201.192382812 58.369140625 c 0
 203.541015625 58.2353515625 205.913085938 58.111328125 208.353515625 58.009765625 c 0
 208.446289062 58.005859375 208.541015625 58 208.633789062 57.99609375 c 0
 210.185546875 57.93359375 211.805664062 57.892578125 213.39453125 57.841796875 c 0
 216.677734375 57.7578125 219.905273438 57.73828125 223.10546875 57.7509765625 c 0
 224.474609375 57.7568359375 225.8203125 57.7890625 227.17578125 57.8125 c 0
 229.192382812 57.845703125 231.204101562 57.884765625 233.188476562 57.9560546875 c 0
 234.580078125 58.0048828125 235.955078125 58.07421875 237.331054688 58.1416015625 c 0
 239.237304688 58.234375 241.133789062 58.337890625 243.010742188 58.4638671875 c 0
 244.385742188 58.5556640625 245.750976562 58.66015625 247.110351562 58.76953125 c 0
 248.958007812 58.9189453125 250.791992188 59.0849609375 252.611328125 59.265625 c 0
 253.940429688 59.3974609375 255.266601562 59.533203125 256.581054688 59.6806640625 c 0
 258.3984375 59.8857421875 260.196289062 60.111328125 261.986328125 60.3466796875 c 0
 263.255859375 60.513671875 264.529296875 60.6767578125 265.78515625 60.8583984375 c 0
 267.619140625 61.123046875 269.426757812 61.4140625 271.231445312 61.708984375 c 0
 272.393554688 61.8984375 273.56640625 62.078125 274.715820312 62.28125 c 0
 276.693359375 62.62890625 278.639648438 63.0078125 280.583007812 63.3896484375 c 0
 281.51953125 63.57421875 282.471679688 63.744140625 283.400390625 63.9365234375 c 0
 286.256835938 64.5263671875 289.081054688 65.1484375 291.864257812 65.80859375 c 0
 340.530273438 77.359375 369.91796875 104.586914062 382.342773438 165.46484375 c 0
 392.657226562 223.950195312 387.823242188 283.751953125 387.443359375 288.178710938 c 1
 377.072265625 282.719726562 365.55859375 278.267578125 352.740234375 275.197265625 c 0
 352.690429688 275.185546875 352.638671875 275.177734375 352.58984375 275.166015625 c 0
 326.741210938 268.11328125 298.5703125 265.086914062 271.826171875 263.55859375 c 0
 267.396484375 263.202148438 262.966796875 262.905273438 258.8984375 262.668945312 c 0
 258.78515625 262.662109375 258.663085938 262.654296875 258.55078125 262.647460938 c 0
 256.1328125 262.508789062 253.891601562 262.397460938 251.828125 262.3046875 c 0
 251.5234375 262.291015625 251.184570312 262.2734375 250.889648438 262.260742188 c 0
 250.333007812 262.236328125 249.85546875 262.220703125 249.3359375 262.200195312 c 0
 248.786132812 262.178710938 248.197265625 262.153320312 247.693359375 262.13671875 c 0
 247.33984375 262.125 247.063476562 262.119140625 246.734375 262.109375 c 0
 246.151367188 262.091796875 245.541992188 262.072265625 245.04296875 262.061523438 c 0
 244.76953125 262.055664062 244.5859375 262.056640625 244.33984375 262.052734375 c 0
 243.888671875 262.044921875 243.405273438 262.036132812 243.049804688 262.036132812 c 0
 243.04296875 262.036132812 243.036132812 262.036132812 243.029296875 262.036132812 c 0
 226.579101562 262.04296875 210.1328125 262.212890625 193.702148438 262.916992188 c 0
 163.403320312 264.21484375 130.384765625 266.982421875 100.458984375 275.122070312 c 0
 100.336914062 275.150390625 100.2109375 275.168945312 100.088867188 275.198242188 c 0
 99.62890625 275.30859375 99.205078125 275.456054688 98.7490234375 275.568359375 c 0
 98.22265625 275.715820312 97.693359375 275.85546875 97.1689453125 276.005859375 c 0
 82.951171875 279.69140625 70.2314453125 284.958984375 59.1103515625 291.580078125 c 0
 50.4814453125 296.487304688 42.5361328125 302.232421875 35.5205078125 308.995117188 c 0
 24.5732421875 319.548828125 16.73046875 331.71484375 11.2119140625 344.697265625 c 0
 5.87890625 356.530273438 2.484375 369.169921875 1.1865234375 382.225585938 c 0
 0.4560546875 389.568359375 0.033203125 397.140625 0.013671875 404.8046875 c 0
 0.0126953125 405.013671875 0.0029296875 405.224609375 0.0029296875 405.43359375 c 0
 0.0029296875 405.642578125 0.0126953125 405.853515625 0.013671875 406.0625 c 0
 0.033203125 413.7265625 0.4560546875 421.298828125 1.1865234375 428.641601562 c 0
 2.484375 441.697265625 5.87890625 454.336914062 11.2119140625 466.169921875 c 0
 16.73046875 479.15234375 24.5732421875 491.318359375 35.5205078125 501.872070312 c 0
 42.5361328125 508.634765625 50.4814453125 514.379882812 59.1103515625 519.287109375 c 0
 70.2314453125 525.908203125 82.951171875 531.17578125 97.1689453125 534.861328125 c 0
 97.693359375 535.01171875 98.22265625 535.151367188 98.7490234375 535.298828125 c 0
 99.205078125 535.411132812 99.62890625 535.55859375 100.088867188 535.668945312 c 0
 100.2109375 535.698242188 100.336914062 535.716796875 100.458984375 535.745117188 c 0
 130.384765625 543.884765625 163.403320312 546.65234375 193.702148438 547.950195312 c 0
 210.1328125 548.654296875 226.579101562 548.82421875 243.029296875 548.831054688 c 0
 243.036132812 548.831054688 243.04296875 548.831054688 243.049804688 548.831054688 c 0
 243.408203125 548.831054688 243.89453125 548.822265625 244.349609375 548.814453125 c 0
 244.592773438 548.810546875 244.7734375 548.811523438 245.04296875 548.805664062 c 0
 245.563476562 548.794921875 246.194335938 548.774414062 246.8046875 548.755859375 c 0
 247.111328125 548.74609375 247.364257812 548.741210938 247.692382812 548.73046875 c 0
 248.28515625 548.7109375 248.96875 548.681640625 249.625 548.65625 c 0
 250.052734375 548.639648438 250.434570312 548.626953125 250.885742188 548.607421875 c 0
 251.271484375 548.590820312 251.709960938 548.567382812 252.112304688 548.549804688 c 0
 254.100585938 548.458984375 256.239257812 548.352539062 258.547851562 548.219726562 c 0
 258.764648438 548.20703125 258.997070312 548.192382812 259.215820312 548.1796875 c 0
 263.198242188 547.9453125 267.509765625 547.65625 271.827148438 547.30859375 c 0
 298.5703125 545.780273438 326.741210938 542.75390625 352.588867188 535.701171875 c 0
 352.639648438 535.689453125 352.69140625 535.681640625 352.7421875 535.669921875 c 0
 368.370117188 531.92578125 382.16015625 526.216796875 394.157226562 519.0078125 c 0
 402.611328125 514.159179688 410.41796875 508.518554688 417.310546875 501.874023438 c 0
 428.2578125 491.3203125 436.100585938 479.154296875 441.619140625 466.171875 c 0
 445.897460938 456.6796875 448.864257812 446.654296875 450.565429688 436.327148438 c 0
EndSplineSet
EndChar

StartChar: colon
Encoding: 58 58 28
Width: 133
Flags: W
LayerCount: 2
Fore
SplineSet
41.509765625 173.584960938 m 0
 64.4345703125 173.584960938 83.0185546875 155.000976562 83.0185546875 132.076171875 c 0
 83.0185546875 109.151367188 64.4345703125 90.5673828125 41.509765625 90.5673828125 c 0
 18.5849609375 90.5673828125 0.0009765625 109.151367188 0.0009765625 132.076171875 c 0
 0.0009765625 155.000976562 18.5849609375 173.584960938 41.509765625 173.584960938 c 0
41.509765625 354.716796875 m 0
 18.5849609375 354.716796875 0.0009765625 373.30078125 0.0009765625 396.225585938 c 0
 0.0009765625 419.150390625 18.5849609375 437.734375 41.509765625 437.734375 c 0
 64.4345703125 437.734375 83.0185546875 419.150390625 83.0185546875 396.225585938 c 0
 83.0185546875 373.30078125 64.4345703125 354.716796875 41.509765625 354.716796875 c 0
EndSplineSet
EndChar

StartChar: semicolon
Encoding: 59 59 29
Width: 202
Flags: W
LayerCount: 2
Fore
SplineSet
84.435546875 110.323242188 m 2
 86.716796875 156.935546875 l 1
 139.397460938 153.717773438 l 1
 137.396484375 111.188476562 l 2
 137.359375 110.4140625 137.321289062 109.640625 137.280273438 108.866210938 c 0
 132.71484375 21.0732421875 93.7275390625 -61.392578125 29.6064453125 -121.534179688 c 2
 28.5654296875 -122.509765625 l 1
 -0.001953125 -105.66015625 l 1
 51.080078125 -48.34375 80.181640625 30.892578125 84.322265625 108.125976562 c 0
 84.361328125 108.858398438 84.3994140625 109.590820312 84.435546875 110.323242188 c 2
110.752929688 437.734375 m 0
 133.677734375 437.734375 152.26171875 419.150390625 152.26171875 396.225585938 c 0
 152.26171875 373.30078125 133.677734375 354.716796875 110.752929688 354.716796875 c 0
 87.828125 354.716796875 69.244140625 373.30078125 69.244140625 396.225585938 c 0
 69.244140625 419.150390625 87.828125 437.734375 110.752929688 437.734375 c 0
EndSplineSet
EndChar

StartChar: less
Encoding: 60 60 30
Width: 512
Flags: W
LayerCount: 2
Fore
SplineSet
462.046875 519.5859375 m 1
 123.508789062 277.546875 l 1
 462.046875 35.5078125 l 1
 420.34765625 -22.8173828125 l 1
 61.869140625 233.477539062 l 1
 61.638671875 233.3125 l 1
 -0 277.381835938 l 1
 420.34765625 577.911132812 l 1
 462.046875 519.5859375 l 1
EndSplineSet
EndChar

StartChar: equal
Encoding: 61 61 31
Width: 442
Flags: W
LayerCount: 2
Fore
SplineSet
0 169.811523438 m 1
 0 241.509765625 l 1
 392.453125 241.509765625 l 1
 392.453125 169.811523438 l 1
 0 169.811523438 l 1
0 384.90625 m 1
 392.453125 384.90625 l 1
 392.453125 313.208007812 l 1
 0 313.208007812 l 1
 0 384.90625 l 1
EndSplineSet
EndChar

StartChar: greater
Encoding: 62 62 32
Width: 512
Flags: W
LayerCount: 2
Fore
SplineSet
462.046875 277.381835938 m 1
 400.408203125 233.3125 l 1
 400.177734375 233.477539062 l 1
 41.69921875 -22.8173828125 l 1
 -0 35.5078125 l 1
 338.538085938 277.546875 l 1
 -0 519.5859375 l 1
 41.69921875 577.911132812 l 1
 462.046875 277.381835938 l 1
EndSplineSet
EndChar

StartChar: question
Encoding: 63 63 33
Width: 578
Flags: W
LayerCount: 2
Fore
SplineSet
132.075195312 83.0185546875 m 0
 155 83.0185546875 173.583984375 64.4345703125 173.583984375 41.509765625 c 0
 173.583984375 18.5849609375 155 0.0009765625 132.075195312 0.0009765625 c 0
 109.150390625 0.0009765625 90.56640625 18.5849609375 90.56640625 41.509765625 c 0
 90.56640625 64.4345703125 109.150390625 83.0185546875 132.075195312 83.0185546875 c 0
487.911132812 738.985351562 m 0
 522.8046875 697.111328125 527.927734375 635.897460938 523.74609375 583.529296875 c 0
 518.662109375 519.86328125 483.69140625 463.30859375 420.522460938 444.46875 c 0
 385.413085938 433.997070312 378.505859375 430.798828125 335.911132812 430.2734375 c 1
 335.848632812 430.190429688 l 1
 147.168945312 430.190429688 166.037109375 332.077148438 166.037109375 215.095703125 c 1
 83.0185546875 215.095703125 l 1
 83.0185546875 272.642578125 l 2
 83.0185546875 384.76953125 100.654296875 483.673828125 295.912109375 490.212890625 c 0
 299.297851562 490.434570312 302.538085938 490.56640625 305.54296875 490.56640625 c 0
 322.504882812 490.56640625 339.40234375 490.629882812 356.174804688 493.568359375 c 0
 412.087890625 503.364257812 446.744140625 543.079101562 451.978515625 599.5703125 c 0
 457.982421875 664.372070312 424.771484375 711.337890625 362.240234375 726.1796875 c 0
 329.58203125 733.930664062 295.452148438 735.166015625 261.948242188 735.637695312 c 0
 85.1826171875 732.118164062 64.427734375 682.598632812 71.6953125 573.583984375 c 1
 -0.0029296875 573.583984375 l 1
 -0.0029296875 631.130859375 l 2
 -0.0029296875 724.52734375 33.958984375 799.999023438 233.958984375 799.999023438 c 2
 258.884765625 799.999023438 l 2
 262.620117188 800.3046875 266.567382812 800.001953125 271.334960938 799.999023438 c 2
 298.110351562 799.999023438 l 1
 298.049804688 799.741210938 l 1
 306.30859375 799.569335938 314.565429688 799.296875 322.81640625 798.856445312 c 0
 380.784179688 795.764648438 448.368164062 786.438476562 487.911132812 738.985351562 c 0
EndSplineSet
EndChar

StartChar: u16B5C
Encoding: 93020 93020 34
Width: 510
Flags: W
LayerCount: 2
Fore
SplineSet
297.603515625 432.194335938 m 2
 330.270507812 343.91796875 l 1
 391.703125 371.247070312 403.497070312 393.940429688 405.953125 432.870117188 c 0
 406.463867188 440.994140625 402.282226562 464.182617188 386.522460938 480.162109375 c 0
 373.828125 493.03125 356.336914062 499.005859375 334.495117188 497.946289062 c 0
 317.407226562 497.108398438 305.4375 491.5625 298.919921875 481.458984375 c 0
 288.018554688 464.565429688 295.174804688 439.447265625 297.603515625 432.194335938 c 2
161.321289062 76.2998046875 m 0
 172.530273438 93.552734375 164.875976562 119.471679688 162.641601562 126.05859375 c 2
 130.112304688 213.790039062 l 1
 68.8876953125 186.748046875 57.048828125 164.109375 54.4580078125 125.26171875 c 0
 53.916015625 117.140625 58.0107421875 93.9423828125 73.712890625 77.9052734375 c 0
 86.359375 64.9873046875 103.817382812 58.9296875 125.680664062 59.9296875 c 0
 142.776367188 60.7060546875 154.767578125 66.21484375 161.321289062 76.2998046875 c 0
459.41015625 427.040039062 m 0
 457.551757812 342.828125 387.145507812 305.424804688 349.689453125 291.446289062 c 1
 449.217773438 22.48046875 l 1
 393.625 1.8662109375 l 1
 291.635742188 276.483398438 l 1
 185.474609375 235.225585938 l 1
 208.303710938 173.694335938 l 2
 211.546875 165.890625 214.852539062 156.833007812 218.229492188 146.442382812 c 0
 232.405273438 102.819335938 230.948242188 67.9296875 213.899414062 42.740234375 c 0
 190.723632812 8.4990234375 144.665039062 1.033203125 125.885742188 0.646484375 c 0
 95.25 0.0166015625 64.7099609375 8.650390625 35.984375 36.224609375 c 0
 11.7626953125 59.47265625 0 91.45703125 1.0205078125 131.284179688 c 0
 3.1689453125 215.063476562 73.00390625 252.267578125 110.651367188 266.27734375 c 1
 10.1474609375 534.708984375 l 1
 65.740234375 555.321289062 l 1
 167.946289062 282.470703125 l 1
 275.129882812 320.926757812 l 1
 248.329101562 393.090820312 l 2
 241.8984375 410.3125 239.041992188 420.072265625 237.96484375 425.756835938 c 0
 228.4609375 462.551757812 231.201171875 492.474609375 246.212890625 514.825195312 c 0
 269.266601562 549.151367188 315.338867188 555.91796875 334.077148438 557.232421875 c 0
 350.170898438 558.391601562 393.403320312 551.240234375 424.106445312 521.977539062 c 0
 448.411132812 498.814453125 460.2890625 466.873046875 459.41015625 427.040039062 c 0
EndSplineSet
EndChar

StartChar: u16B07
Encoding: 92935 92935 35
Width: 610
Flags: W
AnchorPoint: "above" 240.67 600 basechar 0
LayerCount: 2
Fore
SplineSet
467.924804688 554.716796875 m 1
 539.623046875 554.716796875 l 1
 539.623046875 0 l 1
 467.924804688 -0 l 1
 467.924804688 276.88671875 l 1
 467.924804688 276.88671875 406.65234375 431.37890625 240.669921875 464.151367188 c 0
 87.7734375 494.33984375 86.79296875 354.716796875 86.79296875 354.716796875 c 1
 86.79296875 0 l 1
 15.0947265625 -0 l 1
 15.0947265625 354.716796875 l 2
 15.0947265625 377.358398438 -0 577.358398438 240.669921875 550.943359375 c 0
 362.654296875 537.5546875 433.821289062 445.21875 467.924804688 384.9765625 c 1
 467.924804688 554.716796875 l 1
EndSplineSet
EndChar

StartChar: u16B3F
Encoding: 92991 92991 36
Width: 372
Flags: W
LayerCount: 2
Fore
SplineSet
114.555664062 418.868164062 m 1
 303.235351562 418.868164062 l 1
 303.235351562 358.491210938 l 1
 114.555664062 358.491210938 l 1
 114.555664062 184.90625 l 1
 42.857421875 184.90625 l 1
 42.857421875 592.453125 l 1
 114.555664062 592.453125 l 1
 114.555664062 418.868164062 l 1
EndSplineSet
EndChar

StartChar: u16B11
Encoding: 92945 92945 37
Width: 595
Flags: W
AnchorPoint: "above" 262.26 600 basechar 0
LayerCount: 2
Fore
SplineSet
452.830078125 550.943359375 m 1
 524.52734375 550.944335938 l 1
 524.52734375 154.717773438 l 2
 524.52734375 67.92578125 494.338867188 -26.4140625 339.622070312 7.5478515625 c 0
 301.020507812 16.021484375 277.400390625 50.73828125 263.040039062 94.015625 c 1
 247.860351562 50.73828125 223.5078125 16.021484375 184.90625 7.5478515625 c 0
 30.189453125 -26.4140625 0.0009765625 67.92578125 0.0009765625 154.717773438 c 2
 0.0009765625 550.944335938 l 1
 71.69921875 550.944335938 l 1
 71.69921875 154.717773438 l 1
 71.69921875 154.717773438 66.9609375 52.78125 162.264648438 75.47265625 c 0
 222.526367188 89.8203125 232.595703125 191.439453125 233.962890625 239.310546875 c 2
 233.962890625 550.943359375 l 1
 294.33984375 550.943359375 l 1
 294.33984375 219.4921875 l 2
 296.846679688 167.782226562 309.408203125 88.056640625 362.263671875 75.4716796875 c 0
 457.567382812 52.7802734375 452.830078125 154.716796875 452.830078125 154.716796875 c 1
 452.830078125 550.943359375 l 1
EndSplineSet
EndChar

StartChar: u16B13
Encoding: 92947 92947 38
Width: 609
Flags: W
AnchorPoint: "above" 273.59 600 basechar 0
LayerCount: 2
Fore
SplineSet
200 501.88671875 m 0
 169.811523438 501.88671875 166.038085938 460.510742188 166.038085938 452.831054688 c 0
 166.038085938 441.311523438 166.038085938 407.547851562 196.2265625 397.286132812 c 0
 215.513671875 390.73046875 237.736328125 388.6796875 237.736328125 388.6796875 c 1
 237.736328125 456.604492188 l 1
 237.736328125 458.72265625 l 1
 237.736328125 458.72265625 237.736328125 501.88671875 200 501.88671875 c 0
452.830078125 554.717773438 m 1
 524.528320312 554.716796875 l 1
 524.528320312 0 l 1
 452.830078125 0 l 1
 452.830078125 313.208007812 l 1
 452.830078125 313.208007812 383.616210938 307.319335938 309.43359375 311.821289062 c 1
 309.43359375 143.396484375 l 1
 309.43359375 98.349609375 l 2
 309.43359375 44.033203125 265.401367188 0.0009765625 211.084960938 0.0009765625 c 2
 154.716796875 0.0009765625 l 1
 98.3486328125 0.0009765625 l 2
 44.0322265625 0.0009765625 0 44.033203125 0 98.349609375 c 2
 0 143.396484375 l 1
 0 554.716796875 l 1
 71.6982421875 554.716796875 l 1
 71.6982421875 143.396484375 l 1
 71.6982421875 137.5 l 2
 71.6982421875 101.159179688 101.158203125 71.6982421875 137.5 71.6982421875 c 2
 154.716796875 71.6982421875 l 1
 156.271484375 71.6982421875 l 2
 168.328125 71.6982421875 180.390625 73.6064453125 191.568359375 78.125 c 0
 216.509765625 88.2080078125 237.736328125 109.434570312 237.736328125 143.396484375 c 2
 237.736328125 320.063476562 l 1
 209.85546875 325.188476562 184.462890625 332.760742188 165.491210938 343.778320312 c 0
 127.03515625 361.8671875 113.208007812 407.95703125 113.208007812 451.04296875 c 0
 113.208007812 506.180664062 157.134765625 554.717773438 211.321289062 554.717773438 c 0
 263.677734375 554.717773438 306.446289062 509.40234375 309.276367188 456.604492188 c 1
 309.434570312 456.604492188 l 1
 309.434570312 380.360351562 l 1
 347.983398438 378.364257812 400.387695312 377.248046875 452.830078125 381.1328125 c 1
 452.830078125 554.717773438 l 1
EndSplineSet
EndChar

StartChar: u16B0B
Encoding: 92939 92939 39
Width: 696
Flags: W
AnchorPoint: "above" 375.47 600 basechar 0
LayerCount: 2
Fore
SplineSet
339.540039062 427.106445312 m 2
 339.540039062 468.651367188 l 1
 339.540039062 468.651367188 339.623046875 509.432617188 305.733398438 507.350585938 c 0
 278.73828125 505.692382812 275.306640625 470.25390625 275.306640625 463.369140625 c 0
 275.306640625 453.041992188 275.306640625 422.771484375 302.352539062 413.571289062 c 0
 318.00390625 408.247070312 335.8125 423.10546875 339.029296875 425.952148438 c 0
 339.364257812 426.249023438 339.540039062 426.659179688 339.540039062 427.106445312 c 2
520.754882812 554.715820312 m 0
 588.6796875 558.489257812 626.415039062 517.453125 626.415039062 430.424804688 c 0
 626.415039062 419.09765625 626.415039062 409.015625 626.415039062 400 c 2
 626.415039062 328.301757812 l 1
 626.415039062 0 l 1
 554.716796875 -0 l 1
 554.716796875 328.301757812 l 1
 554.716796875 400 l 1
 554.716796875 400 558.490234375 471.698242188 505.66015625 467.924804688 c 0
 452.830078125 464.151367188 411.3203125 400 411.3203125 400 c 1
 411.3203125 143.396484375 l 1
 411.3203125 128.301757812 l 1
 411.3203125 98.3486328125 l 2
 411.3203125 44.0322265625 367.288085938 0 312.971679688 0 c 2
 256.603515625 0 l 1
 200.235351562 0 l 2
 145.918945312 -0 101.88671875 44.0322265625 101.88671875 98.3486328125 c 2
 101.88671875 128.301757812 l 1
 101.88671875 143.396484375 l 1
 101.88671875 464.151367188 l 1
 101.88671875 468.614257812 l 2
 101.88671875 501.887695312 50.87890625 475.415039062 33.9619140625 460.377929688 c 1
 -0 516.981445312 l 1
 30.5986328125 542.53515625 60.376953125 554.717773438 101.88671875 554.717773438 c 2
 109.43359375 554.717773438 l 2
 147.169921875 554.717773438 173.584960938 535.849609375 173.584960938 500.47265625 c 2
 173.584960938 143.397460938 l 1
 173.584960938 137.500976562 l 2
 173.584960938 101.16015625 203.044921875 71.69921875 239.38671875 71.69921875 c 2
 256.603515625 71.69921875 l 1
 258.158203125 71.69921875 l 2
 270.21484375 71.69921875 282.27734375 73.607421875 293.455078125 78.1259765625 c 0
 318.396484375 88.208984375 339.623046875 109.435546875 339.623046875 143.397460938 c 2
 339.623046875 365.018554688 l 1
 329.584960938 360.861328125 319.240234375 358.491210938 309.114257812 358.491210938 c 0
 248.26171875 358.491210938 227.977539062 412.334960938 227.977539062 461.767578125 c 0
 227.977539062 511.201171875 267.434570312 551.549804688 315.875976562 554.716796875 c 0
 367.96875 558.123046875 403.776367188 519.919921875 410.254882812 476.092773438 c 1
 420.900390625 492.73046875 462.479492188 551.478515625 520.754882812 554.715820312 c 0
EndSplineSet
EndChar

StartChar: u16B01
Encoding: 92929 92929 40
Width: 637
Flags: W
AnchorPoint: "above" 276.55 600 basechar 0
LayerCount: 2
Fore
SplineSet
429.379882812 49.056640625 m 0
 453.760742188 59.095703125 466.642578125 75.705078125 469.995117188 97.376953125 c 1
 456.850585938 176.666992188 342.690429688 164.09375 346.361328125 94.33984375 c 0
 348.70703125 49.767578125 402.805664062 38.1142578125 429.379882812 49.056640625 c 0
467.1171875 558.490234375 m 1
 538.814453125 558.490234375 l 1
 538.814453125 486.791992188 l 2
 538.814453125 397.458984375 538.814453125 248.79296875 538.814453125 184.905273438 c 0
 538.814453125 145.021484375 538.814453125 132.008789062 538.814453125 128.30078125 c 0
 538.814453125 59.919921875 469.416992188 -26.63671875 367.348632812 6.3388671875 c 0
 304.86328125 26.5263671875 282.092773438 96.1640625 316.173828125 150.943359375 c 0
 345.23046875 197.646484375 439.733398438 214.005859375 467.1171875 147.875976562 c 1
 467.1171875 486.791992188 l 1
 14.287109375 486.791992188 l 1
 14.287109375 558.490234375 l 1
 467.1171875 558.490234375 l 1
EndSplineSet
EndChar

StartChar: u16B31
Encoding: 92977 92977 41
Width: 8
Flags: W
AnchorPoint: "above" -339.62 600 mark 0
LayerCount: 2
Fore
SplineSet
-400 875.471679688 m 1
 -283.01953125 875.471679688 l 1
 -339.623046875 664.151367188 l 1
 -400 875.471679688 l 1
EndSplineSet
EndChar

StartChar: u16B35
Encoding: 92981 92981 42
Width: 10
Flags: HW
AnchorPoint: "above" -355.53 600 mark 0
LayerCount: 2
Fore
SplineSet
-337.466796875 720.754882812 m 1
 -225.337890625 720.754882812 l 1
 -225.337890625 660.377929688 l 1
 -485.71484375 660.377929688 l 1
 -485.71484375 720.754882812 l 1
 -370.889648438 720.754882812 l 1
 -414.016601562 875.471679688 l 1
 -297.03515625 875.471679688 l 1
 -337.466796875 720.754882812 l 1
EndSplineSet
EndChar

StartChar: u16B2F
Encoding: 92975 92975 43
Width: 595
Flags: W
AnchorPoint: "above" 262.55 600 basechar 0
LayerCount: 2
Fore
SplineSet
262.55078125 84.3173828125 m 1
 368.732421875 332.076171875 l 1
 158.053710938 332.076171875 l 1
 262.55078125 84.3173828125 l 1
464.149414062 554.717773438 m 1
 524.526367188 532.076171875 l 1
 298.111328125 0.0009765625 l 1
 226.413085938 0.0009765625 l 1
 -0.001953125 532.076171875 l 1
 64.1494140625 554.717773438 l 1
 132.586914062 392.454101562 l 1
 394.607421875 392.454101562 l 1
 464.149414062 554.717773438 l 1
EndSplineSet
EndChar

StartChar: u16B1F
Encoding: 92959 92959 44
Width: 614
Flags: W
AnchorPoint: "above" 262.26 600 basechar 0
LayerCount: 2
Fore
SplineSet
437.736328125 362.263671875 m 0
 482.30859375 364.609375 493.961914062 418.708007812 483.01953125 445.282226562 c 0
 472.98046875 469.6640625 456.37109375 482.544921875 434.69921875 485.897460938 c 1
 355.408203125 472.752929688 367.981445312 358.592773438 437.736328125 362.263671875 c 0
403.774414062 554.716796875 m 0
 472.155273438 554.716796875 558.7109375 485.318359375 525.735351562 383.25 c 0
 505.547851562 320.764648438 435.91015625 297.994140625 381.130859375 332.075195312 c 0
 334.427734375 361.131835938 318.068359375 455.634765625 384.198242188 483.018554688 c 1
 298.112304688 483.018554688 l 1
 298.112304688 0 l 1
 226.4140625 -0 l 1
 226.4140625 483.018554688 l 1
 71.697265625 483.018554688 l 1
 71.697265625 0 l 1
 -0.0009765625 -0 l 1
 -0.0009765625 483.018554688 l 1
 -0.0009765625 554.716796875 l 1
 -0.0009765625 554.716796875 29.318359375 554.716796875 71.697265625 554.716796875 c 0
 153.796875 554.716796875 284.948242188 554.716796875 347.169921875 554.716796875 c 0
 387.053710938 554.716796875 400.06640625 554.716796875 403.774414062 554.716796875 c 0
EndSplineSet
EndChar

StartChar: u16B23
Encoding: 92963 92963 45
Width: 595
Flags: W
AnchorPoint: "above" 262.26 600 basechar 0
LayerCount: 2
Fore
SplineSet
524.528320312 483.018554688 m 1
 71.6982421875 483.018554688 l 1
 71.6982421875 313.20703125 l 1
 381.131835938 313.20703125 l 1
 381.131835938 241.508789062 l 1
 71.6982421875 241.508789062 l 1
 71.6982421875 71.697265625 l 1
 524.528320312 71.697265625 l 1
 524.528320312 -0.0009765625 l 1
 71.6982421875 -0.0009765625 l 1
 0 -0.0009765625 l 1
 0 71.697265625 l 1
 0 241.508789062 l 1
 0 313.20703125 l 1
 0 483.018554688 l 1
 0 554.716796875 l 1
 71.6982421875 554.716796875 l 1
 524.528320312 554.716796875 l 1
 524.528320312 483.018554688 l 1
EndSplineSet
EndChar

StartChar: u16B29
Encoding: 92969 92969 46
Width: 681
Flags: W
AnchorPoint: "above" 305.51 600 basechar 0
LayerCount: 2
Fore
SplineSet
480.779296875 52.830078125 m 0
 503.420898438 41.509765625 552.477539062 49.7060546875 552.477539062 94.33984375 c 0
 552.477539062 145.94140625 467.833984375 153.609375 447.151367188 105.963867188 c 1
 448.36328125 82.46484375 454.063476562 66.1884765625 480.779296875 52.830078125 c 0
129.8359375 52.830078125 m 0
 156.551757812 66.1884765625 162.251953125 82.46484375 163.463867188 105.963867188 c 1
 142.78125 153.609375 58.1376953125 145.94140625 58.1376953125 94.33984375 c 0
 58.1376953125 49.7060546875 107.194335938 41.509765625 129.8359375 52.830078125 c 0
590.212890625 124.528320312 m 0
 610.614257812 63.3232421875 579.771484375 24.3671875 546.583984375 11.3212890625 c 0
 450.58984375 -26.4150390625 375.118164062 37.736328125 375.118164062 128.302734375 c 0
 375.118164062 129.591796875 375.203125 130.840820312 375.315429688 132.077148438 c 2
 375.118164062 132.077148438 l 1
 375.118164062 283.020507812 l 1
 235.495117188 283.020507812 l 1
 235.495117188 132.077148438 l 1
 235.297851562 132.077148438 l 2
 235.41015625 130.840820312 235.495117188 129.591796875 235.495117188 128.302734375 c 0
 235.495117188 37.736328125 160.0234375 -26.4150390625 64.029296875 11.3212890625 c 0
 30.841796875 24.3671875 -0.0009765625 63.32421875 20.400390625 124.529296875 c 0
 39.734375 182.530273438 136.048828125 201.940429688 163.796875 142.958007812 c 1
 163.796875 283.01953125 l 1
 163.796875 343.396484375 l 1
 163.796875 554.716796875 l 1
 235.495117188 554.716796875 l 1
 235.495117188 343.396484375 l 1
 375.118164062 343.396484375 l 1
 375.118164062 554.716796875 l 1
 446.81640625 554.716796875 l 1
 446.81640625 142.95703125 l 1
 474.564453125 201.939453125 570.87890625 182.529296875 590.212890625 124.528320312 c 0
EndSplineSet
EndChar

StartChar: u16B2B
Encoding: 92971 92971 47
Width: 652
Flags: W
AnchorPoint: "above" 290.83 600 basechar 0
LayerCount: 2
Fore
SplineSet
481.401367188 554.716796875 m 1
 553.098632812 554.716796875 l 1
 553.098632812 0 l 1
 481.400390625 -0 l 1
 481.400390625 449.3203125 l 1
 290.833984375 169.1875 l 1
 285.232421875 177.421875 l 1
 285.173828125 177.358398438 l 1
 100.268554688 449.278320312 l 1
 100.268554688 0 l 1
 28.5703125 -0 l 1
 28.5703125 554.716796875 l 1
 100.268554688 554.716796875 l 1
 290.834960938 277.358398438 l 1
 481.401367188 554.716796875 l 1
EndSplineSet
EndChar

StartChar: u16B27
Encoding: 92967 92967 48
Width: 595
Flags: W
AnchorPoint: "above" 273.59 600 basechar 0
LayerCount: 2
Fore
SplineSet
452.830078125 554.716796875 m 1
 524.528320312 554.716796875 l 1
 524.528320312 0 l 1
 452.830078125 0 l 1
 452.830078125 249.056640625 l 1
 309.43359375 249.056640625 l 1
 309.43359375 203.7734375 l 1
 309.43359375 146.2265625 l 1
 309.43359375 139.623046875 l 1
 309.431640625 139.623046875 l 1
 309.361328125 43.1513671875 306.182617188 -3.689453125 162.263671875 0.0009765625 c 2
 147.168945312 0.0009765625 l 2
 -0.0009765625 -3.7724609375 -0.0009765625 45.2841796875 -0.0009765625 146.227539062 c 2
 -0.0009765625 203.774414062 l 1
 71.697265625 203.774414062 l 1
 71.697265625 203.774414062 71.2529296875 157.737304688 71.697265625 139.62109375 c 0
 73.1767578125 79.24609375 75.470703125 60.3779296875 147.168945312 60.3779296875 c 2
 162.263671875 60.3779296875 l 2
 230.188476562 60.3779296875 236.255859375 79.24609375 237.735351562 139.62109375 c 0
 237.735351562 139.622070312 237.735351562 139.624023438 237.735351562 139.624023438 c 1
 237.735351562 139.624023438 l 1
 237.735351562 415.098632812 l 2
 236.255859375 475.473632812 230.188476562 494.341796875 162.263671875 494.341796875 c 2
 147.168945312 494.341796875 l 2
 75.470703125 494.341796875 73.1767578125 475.473632812 71.697265625 415.098632812 c 0
 71.2529296875 396.982421875 71.697265625 350.944335938 71.697265625 350.944335938 c 1
 -0.0009765625 350.944335938 l 1
 -0.0009765625 408.491210938 l 2
 -0.0009765625 509.434570312 -0.0009765625 558.491210938 147.168945312 554.717773438 c 2
 162.263671875 554.717773438 l 2
 298.46484375 558.209960938 308.614257812 516.446289062 309.37109375 430.188476562 c 1
 309.43359375 430.188476562 l 1
 309.43359375 408.490234375 l 1
 309.43359375 350.943359375 l 1
 309.43359375 309.43359375 l 1
 452.830078125 309.43359375 l 1
 452.830078125 554.716796875 l 1
EndSplineSet
EndChar

StartChar: u16B1C
Encoding: 92956 92956 49
Width: 595
Flags: W
AnchorPoint: "above" 232.07 600 basechar 0
LayerCount: 2
Fore
SplineSet
328.301757812 354.716796875 m 1
 392.451171875 354.717773438 l 1
 396.224609375 418.869140625 364.39453125 466.056640625 301.862304688 480.8984375 c 0
 279.047851562 486.313476562 255.510742188 488.543945312 231.97265625 489.563476562 c 0
 208.501953125 488.540039062 185.034179688 486.297851562 162.28515625 480.8984375 c 0
 105.790039062 467.489257812 74.45703125 427.624023438 71.697265625 372.75390625 c 2
 71.697265625 328.302734375 l 1
 71.697265625 215.095703125 l 1
 71.697265625 178.19140625 l 2
 74.45703125 123.321289062 105.790039062 83.45703125 162.28515625 70.0478515625 c 0
 185.067382812 64.640625 208.569335938 62.4208984375 232.07421875 61.3994140625 c 0
 255.579101562 62.4208984375 279.081054688 64.640625 301.86328125 70.0478515625 c 0
 364.395507812 84.8896484375 392.452148438 124.530273438 392.452148438 196.228515625 c 1
 392.452148438 196.228515625 464.083007812 197.177734375 464.083984375 196.700195312 c 0
 464.151367188 139.624023438 459.241210938 95.291015625 427.53515625 57.2421875 c 0
 387.993164062 9.7890625 354.37109375 0.462890625 296.404296875 -2.62890625 c 0
 280.963867188 -3.4521484375 265.508789062 -3.7001953125 250.049804688 -3.75 c 0
 243.840820312 -3.9189453125 237.51953125 -3.931640625 232.076171875 -3.89453125 c 0
 226.6328125 -3.931640625 220.3125 -3.9189453125 214.103515625 -3.75 c 0
 198.64453125 -3.7001953125 183.189453125 -3.4521484375 167.749023438 -2.62890625 c 0
 109.782226562 0.462890625 76.16015625 9.7890625 36.6181640625 57.2421875 c 0
 8.271484375 91.259765625 1.8154296875 136.828125 0.390625 181.0546875 c 1
 0.0009765625 181.28125 l 1
 0.0009765625 211.240234375 l 2
 0.0009765625 211.267578125 0.0009765625 211.295898438 0.0009765625 211.323242188 c 2
 0.0009765625 211.326171875 l 1
 0.0009765625 215.096679688 l 1
 0.0009765625 328.303710938 l 1
 0.0009765625 339.62109375 l 1
 0.0009765625 339.624023438 l 2
 0.0009765625 339.651367188 0.0009765625 339.6796875 0.0009765625 339.70703125 c 2
 0.0009765625 362.119140625 l 1
 0.2041015625 362.237304688 l 1
 1.1552734375 408.8125 6.6298828125 457.71875 36.6171875 493.705078125 c 0
 76.1591796875 541.157226562 143.744140625 550.483398438 201.7109375 553.575195312 c 0
 211.827148438 554.114257812 221.94921875 554.412109375 232.07421875 554.567382812 c 1
 232.07421875 554.567382812 l 1
 232.07421875 554.567382812 l 1
 232.07421875 554.567382812 l 1
 232.07421875 554.567382812 l 1
 242.201171875 554.412109375 252.32421875 554.114257812 262.44140625 553.575195312 c 0
 320.408203125 550.483398438 387.993164062 541.157226562 427.53515625 493.704101562 c 0
 459.141601562 455.7734375 463.518554688 403.495117188 464.065429688 354.716796875 c 1
 524.528320312 354.716796875 l 1
 524.528320312 294.33984375 l 1
 328.301757812 294.33984375 l 1
 328.301757812 354.716796875 l 1
EndSplineSet
EndChar

StartChar: u16B2D
Encoding: 92973 92973 50
Width: 595
Flags: W
AnchorPoint: "above" 262.26 600 basechar 0
LayerCount: 2
Fore
SplineSet
71.6982421875 483.018554688 m 1
 71.69921875 139.620117188 l 2
 73.1787109375 79.2451171875 79.24609375 60.376953125 147.170898438 60.376953125 c 2
 207.547851562 60.376953125 l 1
 233.962890625 60.376953125 l 2
 298.114257812 60.376953125 320.755859375 113.20703125 320.755859375 166.037109375 c 2
 320.755859375 169.810546875 l 1
 320.755859375 305.659179688 l 1
 392.454101562 305.659179688 l 1
 392.454101562 169.810546875 l 1
 392.454101562 162.263671875 l 2
 392.454101562 161.09375 392.443359375 159.9296875 392.443359375 158.770507812 c 0
 392.451171875 46.20703125 333.8515625 3.8046875 279.24609375 0.2734375 c 1
 279.24609375 0 l 1
 237.736328125 0 l 1
 207.547851562 0 l 1
 147.170898438 0 l 2
 7.052734375 -3.5927734375 0.3388671875 40.705078125 0.017578125 132.075195312 c 1
 0.0009765625 132.075195312 l 1
 0.0009765625 146.2265625 l 1
 0.0009765625 203.7734375 l 1
 0.0009765625 554.716796875 l 1
 11.3212890625 554.716796875 l 1
 71.6982421875 554.716796875 l 1
 524.528320312 554.716796875 l 1
 524.528320312 483.018554688 l 1
 71.6982421875 483.018554688 l 1
EndSplineSet
EndChar

StartChar: u16B05
Encoding: 92933 92933 51
Width: 655
Flags: W
AnchorPoint: "above" 261.98 600 basechar 0
LayerCount: 2
Fore
SplineSet
452.830078125 139.623046875 m 1
 452.828125 139.622070312 l 1
 452.828125 278.6875 l 2
 452.73828125 278.919921875 452.677734375 279.115234375 452.669921875 279.243164062 c 0
 449.823242188 323.815429688 430.916015625 358.55078125 395.004882812 377.98828125 c 1
 349.08984375 333.919921875 325.283203125 283.802734375 320.75390625 200 c 0
 313.20703125 60.376953125 377.358398438 60.376953125 377.358398438 60.376953125 c 1
 449.056640625 56.603515625 451.350585938 79.2451171875 452.830078125 139.620117188 c 0
 452.830078125 139.62109375 452.830078125 139.623046875 452.830078125 139.623046875 c 1
177.356445312 94.3388671875 m 0
 177.356445312 145.940429688 92.712890625 153.608398438 72.0302734375 105.962890625 c 1
 73.2421875 82.4638671875 78.9423828125 66.1875 105.658203125 52.8291015625 c 0
 128.299804688 41.5087890625 177.356445312 49.705078125 177.356445312 94.3388671875 c 0
487.91015625 403.13671875 m 0
 520.043945312 364.57421875 526.904296875 309.619140625 524.526367188 260.265625 c 2
 524.526367188 203.770507812 l 1
 524.526367188 146.223632812 l 1
 524.526367188 139.620117188 l 1
 524.524414062 139.620117188 l 1
 524.454101562 43.1484375 521.275390625 -3.6923828125 377.356445312 -0.001953125 c 1
 377.356445312 -0.001953125 310.174804688 -0.7294921875 283.017578125 60.375 c 0
 267.922851562 94.3369140625 259.849609375 154.32421875 264.149414062 203.771484375 c 0
 270.6953125 279.052734375 280.110351562 337.299804688 331.733398438 395.75 c 1
 308.638671875 398.719726562 285.1640625 399.459960938 261.9765625 399.786132812 c 0
 85.9921875 396.263671875 75.330078125 346.744140625 71.6962890625 237.733398438 c 2
 71.6962890625 142.954101562 l 1
 99.4443359375 201.936523438 195.758789062 182.526367188 215.092773438 124.525390625 c 0
 235.494140625 63.3203125 204.651367188 24.3642578125 171.463867188 11.318359375 c 0
 75.4697265625 -26.41796875 -0.001953125 37.7333984375 -0.001953125 128.299804688 c 0
 -0.001953125 129.588867188 0.0830078125 130.837890625 0.1953125 132.07421875 c 2
 -0.001953125 132.07421875 l 1
 -0.001953125 237.734375 l 1
 -0.001953125 286.791015625 l 1
 -0.001953125 295.28125 l 2
 -0.001953125 388.677734375 33.9599609375 464.149414062 233.959960938 464.149414062 c 2
 258.885742188 464.149414062 l 2
 262.62109375 464.456054688 266.568359375 464.15234375 271.3359375 464.149414062 c 2
 298.111328125 464.149414062 l 1
 298.05078125 463.891601562 l 1
 306.309570312 463.719726562 314.565429688 463.447265625 322.817382812 463.0078125 c 0
 347.186523438 461.708007812 373.250976562 459.291992188 398.221679688 453.418945312 c 1
 479.123046875 509.780273438 558.489257812 550.943359375 558.489257812 550.943359375 c 1
 584.904296875 501.88671875 l 1
 517.075195312 466.715820312 477.706054688 441.596679688 458.946289062 428.721679688 c 1
 469.641601562 421.735351562 479.424804688 413.319335938 487.91015625 403.13671875 c 0
EndSplineSet
EndChar

StartChar: u16B15
Encoding: 92949 92949 52
Width: 630
Flags: W
AnchorPoint: "above" 297.23 600 basechar 0
LayerCount: 2
Fore
SplineSet
185.561523438 58.6650390625 m 0
 237.806640625 105.2265625 164.766601562 195.415039062 98.9306640625 148.944335938 c 1
 85.8828125 131.260742188 83.3046875 110.3515625 93.6953125 85.8740234375 c 0
 105.006835938 59.2275390625 152.169921875 28.90625 185.561523438 58.6650390625 c 0
511.418945312 60.3779296875 m 1
 559.6015625 60.376953125 l 1
 559.6015625 0 l 1
 533.186523438 0 l 1
 461.48828125 0 l 1
 363.375 -0 l 1
 363.375 60.376953125 l 1
 439.719726562 60.376953125 l 1
 289.184570312 477.899414062 l 1
 114.719726562 173.325195312 l 2
 114.026367188 171.4296875 113.40234375 169.743164062 112.826171875 168.194335938 c 1
 189.307617188 228.703125 261.326171875 137.059570312 247.520507812 77.0732421875 c 0
 233.04296875 14.1669921875 170.23046875 -16.2685546875 106.7734375 3.7734375 c 0
 0.001953125 37.4951171875 35.0751953125 158.490234375 65.263671875 218.8671875 c 0
 70.2275390625 228.795898438 80.37109375 247.943359375 92.03125 267.0546875 c 0
 92.41796875 267.908203125 92.8408203125 268.748046875 93.3212890625 269.5625 c 2
 261.489257812 554.717773438 l 1
 333.1875 554.717773438 l 1
 511.418945312 60.3779296875 l 1
EndSplineSet
EndChar

StartChar: u16B0F
Encoding: 92943 92943 53
Width: 595
Flags: W
AnchorPoint: "above" 262.26 600 basechar 0
LayerCount: 2
Fore
SplineSet
349.056640625 460.215820312 m 0
 349.056640625 408.614257812 433.700195312 400.946289062 454.3828125 448.591796875 c 1
 453.170898438 472.090820312 447.470703125 488.3671875 420.754882812 501.725585938 c 0
 398.11328125 513.045898438 349.056640625 504.849609375 349.056640625 460.215820312 c 0
524.528320312 426.415039062 m 0
 524.528320312 425.13671875 524.44921875 423.899414062 524.348632812 422.671875 c 2
 524.526367188 422.643554688 l 1
 524.526367188 154.71875 l 2
 524.526367188 67.9267578125 494.337890625 -26.4130859375 339.62109375 7.548828125 c 0
 301.01953125 16.0224609375 277.399414062 50.7392578125 263.0390625 94.0166015625 c 1
 247.859375 50.7392578125 223.506835938 16.0224609375 184.905273438 7.548828125 c 0
 30.1884765625 -26.4130859375 0 67.9267578125 0 154.71875 c 2
 0 550.9453125 l 1
 71.6982421875 550.9453125 l 1
 71.6982421875 154.71875 l 1
 71.6982421875 154.71875 66.9599609375 52.7822265625 162.263671875 75.4736328125 c 0
 222.525390625 89.8212890625 232.594726562 191.440429688 233.961914062 239.311523438 c 2
 233.961914062 328.302734375 l 1
 294.338867188 328.302734375 l 1
 294.338867188 219.493164062 l 2
 296.845703125 167.783203125 309.407226562 88.0576171875 362.262695312 75.47265625 c 0
 457.56640625 52.78125 452.829101562 154.717773438 452.829101562 154.717773438 c 1
 452.829101562 407.870117188 l 1
 422.841796875 353.46875 330.235351562 373.282226562 311.3203125 430.02734375 c 0
 290.918945312 491.232421875 321.76171875 530.188476562 354.94921875 543.234375 c 0
 450.943359375 580.970703125 524.528320312 516.981445312 524.528320312 426.415039062 c 0
EndSplineSet
EndChar

StartChar: u16B03
Encoding: 92931 92931 54
Width: 648
Flags: W
AnchorPoint: "above" 302.02 600 basechar 0
LayerCount: 2
Fore
SplineSet
477.494140625 52.830078125 m 0
 500.135742188 41.509765625 549.192382812 49.7060546875 549.192382812 94.33984375 c 0
 549.192382812 145.94140625 464.548828125 153.609375 443.866210938 105.963867188 c 1
 445.078125 82.46484375 450.778320312 66.1884765625 477.494140625 52.830078125 c 0
126.55078125 52.830078125 m 0
 159.79296875 69.451171875 156.740234375 98.11328125 160.513671875 135.849609375 c 2
 160.513671875 267.017578125 l 1
 83.6416015625 195.571289062 59.9794921875 144.830078125 58.4228515625 109.374023438 c 0
 58.5439453125 106.961914062 58.626953125 104.48828125 58.626953125 101.887695312 c 0
 58.626953125 99.5966796875 58.7744140625 97.4013671875 59.00390625 95.26171875 c 0
 59.447265625 91.84765625 60.095703125 88.6015625 60.919921875 85.5263671875 c 0
 70.3671875 53.5400390625 106.940429688 43.025390625 126.55078125 52.830078125 c 0
586.927734375 124.528320312 m 0
 607.329101562 63.3232421875 576.486328125 24.3662109375 543.298828125 11.3203125 c 0
 447.3046875 -26.416015625 371.833007812 37.7353515625 371.833007812 128.301757812 c 0
 371.833007812 129.590820312 371.91796875 130.83984375 372.030273438 132.076171875 c 2
 371.833007812 132.076171875 l 1
 371.833007812 431.453125 l 1
 338.676757812 408.806640625 291.563476562 374.850585938 232.2109375 327.615234375 c 1
 232.2109375 132.076171875 l 1
 232.013671875 132.076171875 l 2
 232.125976562 130.83984375 232.2109375 129.590820312 232.2109375 128.301757812 c 0
 232.2109375 37.7353515625 141.64453125 -26.416015625 60.744140625 11.3203125 c 0
 36.4189453125 22.6669921875 12.4453125 46.4013671875 10.771484375 83.5439453125 c 0
 -0.0009765625 204.405273438 94.47265625 296.38671875 160.51171875 346.684570312 c 1
 160.51171875 554.716796875 l 1
 232.209960938 554.716796875 l 1
 232.209960938 397.721679688 l 1
 263.079101562 421.473632812 333.33984375 471.28515625 371.833007812 498.4140625 c 1
 371.833007812 554.716796875 l 1
 443.53125 554.716796875 l 1
 443.53125 142.95703125 l 1
 471.279296875 201.939453125 567.59375 182.529296875 586.927734375 124.528320312 c 0
EndSplineSet
EndChar

StartChar: u16B2C
Encoding: 92972 92972 55
Width: 595
Flags: W
AnchorPoint: "above" 200 600 basechar 0
LayerCount: 2
Fore
SplineSet
400 554.716796875 m 1
 524.528320312 554.716796875 l 1
 524.528320312 494.33984375 l 1
 400 494.33984375 l 1
 400 203.7734375 l 1
 400 188.678710938 l 1
 400 154.716796875 l 2
 400 101.88671875 369.811523438 0 252.830078125 0 c 2
 147.169921875 0 l 2
 30.1884765625 -0 0 101.88671875 0 154.716796875 c 2
 0 200 l 1
 0 203.7734375 l 1
 0 554.716796875 l 1
 71.6982421875 554.716796875 l 1
 71.6982421875 203.7734375 l 1
 71.6982421875 200 l 2
 71.6982421875 195.095703125 71.6982421875 185.70703125 71.6982421875 173.584960938 c 0
 71.6982421875 105.663085938 113.208007812 60.376953125 173.584960938 60.376953125 c 2
 226.415039062 60.376953125 l 2
 286.791992188 60.376953125 328.301757812 105.663085938 328.301757812 173.584960938 c 2
 328.301757812 203.7734375 l 1
 328.301757812 494.33984375 l 1
 328.301757812 554.716796875 l 1
 400 554.716796875 l 1
EndSplineSet
EndChar

StartChar: u16B19
Encoding: 92953 92953 56
Width: 607
Flags: W
AnchorPoint: "above" 279 600 basechar 0
LayerCount: 2
Fore
SplineSet
129.8359375 52.830078125 m 0
 156.551757812 66.1884765625 162.251953125 82.46484375 163.463867188 105.963867188 c 1
 142.78125 153.609375 58.1376953125 145.94140625 58.1376953125 94.33984375 c 0
 58.1376953125 49.7060546875 107.194335938 41.509765625 129.8359375 52.830078125 c 0
465.684570312 554.716796875 m 1
 537.3828125 554.715820312 l 1
 537.3828125 -0.0009765625 l 1
 465.684570312 -0.0009765625 l 1
 465.684570312 418.8671875 l 1
 235.49609375 418.8671875 l 1
 235.49609375 132.075195312 l 1
 235.298828125 132.075195312 l 2
 235.411132812 130.838867188 235.49609375 129.58984375 235.49609375 128.30078125 c 0
 235.49609375 37.734375 160.024414062 -26.4169921875 64.0302734375 11.3193359375 c 0
 30.8427734375 24.365234375 -0 63.322265625 20.4013671875 124.52734375 c 0
 39.7353515625 182.528320312 136.049804688 201.938476562 163.797851562 142.956054688 c 1
 163.797851562 418.8671875 l 1
 12.8544921875 418.8671875 l 1
 12.8544921875 490.565429688 l 1
 465.684570312 490.565429688 l 1
 465.684570312 554.716796875 l 1
EndSplineSet
EndChar

StartChar: u16B0D
Encoding: 92941 92941 57
Width: 595
Flags: W
AnchorPoint: "above" 262.26 600 basechar 0
LayerCount: 2
Fore
SplineSet
103.7734375 501.724609375 m 0
 77.0576171875 488.366210938 71.357421875 472.08984375 70.1455078125 448.590820312 c 1
 90.828125 400.9453125 175.471679688 408.61328125 175.471679688 460.21484375 c 0
 175.471679688 504.848632812 126.415039062 513.044921875 103.7734375 501.724609375 c 0
452.830078125 550.943359375 m 1
 524.525390625 550.94140625 l 1
 524.525390625 154.71484375 l 2
 524.525390625 67.9228515625 494.336914062 -26.4169921875 339.620117188 7.544921875 c 0
 301.018554688 16.0185546875 276.666015625 50.7353515625 261.486328125 94.0126953125 c 1
 247.125976562 50.7353515625 223.505859375 16.0185546875 184.904296875 7.544921875 c 0
 30.1875 -26.4169921875 -0.0009765625 67.9228515625 -0.0009765625 154.71484375 c 2
 -0.0009765625 422.639648438 l 1
 0.1767578125 422.66796875 l 2
 0.076171875 423.895507812 -0.0009765625 425.134765625 -0.0009765625 426.413085938 c 0
 -0.0009765625 516.979492188 73.583984375 580.96875 169.578125 543.232421875 c 0
 202.765625 530.186523438 233.608398438 491.229492188 213.20703125 430.024414062 c 0
 194.291992188 373.279296875 101.685546875 353.465820312 71.6982421875 407.8671875 c 1
 71.6982421875 154.71484375 l 1
 71.6982421875 154.71484375 66.9609375 52.7783203125 162.264648438 75.4697265625 c 0
 215.120117188 88.0546875 227.681640625 167.779296875 230.188476562 219.489257812 c 2
 230.188476562 328.30078125 l 1
 290.565429688 328.30078125 l 1
 290.565429688 239.309570312 l 2
 291.932617188 191.438476562 302.001953125 89.8193359375 362.263671875 75.4716796875 c 0
 457.567382812 52.7802734375 452.830078125 154.716796875 452.830078125 154.716796875 c 1
 452.830078125 550.943359375 l 1
EndSplineSet
EndChar

StartChar: u16B09
Encoding: 92937 92937 58
Width: 595
Flags: W
AnchorPoint: "above" 262.26 600 basechar 0
LayerCount: 2
Fore
SplineSet
418.868164062 52.830078125 m 0
 445.583984375 66.1884765625 451.284179688 82.46484375 452.49609375 105.963867188 c 1
 431.813476562 153.609375 347.169921875 145.94140625 347.169921875 94.33984375 c 0
 347.169921875 49.7060546875 396.2265625 41.509765625 418.868164062 52.830078125 c 0
452.830078125 554.716796875 m 1
 524.528320312 554.717773438 l 1
 524.528320312 124.529296875 l 1
 524.426757812 124.40625 l 1
 522.284179688 35.9208984375 447.666992188 -25.8681640625 353.0625 11.3212890625 c 0
 319.875 24.3671875 289.032226562 63.3232421875 309.43359375 124.528320312 c 0
 328.767578125 182.529296875 425.08203125 201.939453125 452.830078125 142.95703125 c 1
 452.830078125 320.754882812 l 1
 71.6982421875 320.754882812 l 1
 71.6982421875 0 l 1
 0 -0 l 1
 0 554.716796875 l 1
 71.6982421875 554.716796875 l 1
 71.6982421875 381.131835938 l 1
 452.830078125 381.131835938 l 1
 452.830078125 554.716796875 l 1
EndSplineSet
EndChar

StartChar: u16B28
Encoding: 92968 92968 59
Width: 596
Flags: W
AnchorPoint: "above" 261.95 600 basechar 0
LayerCount: 2
Fore
SplineSet
262.734375 554.853515625 m 0
 265.036132812 554.853515625 267.479492188 554.749023438 270.186523438 554.72265625 c 0
 270.564453125 554.71875 270.948242188 554.716796875 271.336914062 554.716796875 c 2
 298.112304688 554.716796875 l 1
 298.112304688 554.716796875 l 1
 298.112304688 554.716796875 l 1
 298.051757812 554.458984375 l 1
 306.310546875 554.287109375 314.567382812 554.013671875 322.818359375 553.573242188 c 0
 380.78515625 550.481445312 448.369140625 541.155273438 487.912109375 493.703125 c 0
 517.986328125 457.611328125 525.581054688 390.176757812 524.52734375 343.396484375 c 2
 524.52734375 0 l 1
 452.829101562 0 l 1
 452.829101562 173.584960938 l 1
 71.697265625 173.584960938 l 1
 71.697265625 0 l 1
 -0.0009765625 0 l 1
 -0.0009765625 245.283203125 l 1
 452.829101562 245.283203125 l 1
 452.829101562 358.490234375 l 2
 452.829101562 422.641601562 422.788085938 466.526367188 362.241210938 480.897460938 c 0
 353.5546875 482.958984375 344.763671875 484.559570312 335.908203125 485.807617188 c 0
 311.471679688 489.250976562 286.54296875 490.008789062 261.951171875 490.35546875 c 0
 189.700195312 488.916992188 143.513671875 479.79296875 114.651367188 462.0625 c 0
 73.08984375 436.53125 67.4521484375 393.15234375 71.640625 329.174804688 c 0
 71.6591796875 328.883789062 71.6787109375 328.592773438 71.6982421875 328.301757812 c 1
 71.6982421875 328.301757812 l 1
 71.6982421875 328.301757812 71.6982421875 328.301757812 71.6982421875 328.301757812 c 1
 0 328.301757812 l 1
 0 385.848632812 l 2
 -0 479.245117188 33.9619140625 554.716796875 233.961914062 554.716796875 c 2
 258.887695312 554.716796875 l 2
 259.624023438 554.77734375 260.368164062 554.814453125 261.125 554.833984375 c 0
 261.654296875 554.84765625 262.190429688 554.853515625 262.734375 554.853515625 c 0
EndSplineSet
EndChar

StartChar: u16B17
Encoding: 92951 92951 60
Width: 592
Flags: W
AnchorPoint: "above" 262.26 600 basechar 0
LayerCount: 2
Fore
SplineSet
401.3359375 446.704101562 m 1
 422.018554688 399.05859375 506.662109375 406.7265625 506.662109375 458.328125 c 0
 506.662109375 502.961914062 457.60546875 511.158203125 434.963867188 499.837890625 c 0
 408.248046875 486.479492188 402.547851562 470.203125 401.3359375 446.704101562 c 1
500.76953125 541.346679688 m 0
 533.95703125 528.30078125 564.799804688 489.34375 544.3984375 428.138671875 c 0
 524.82421875 369.416992188 426.34375 350.25 400.000976562 411.947265625 c 1
 400.000976562 203.772460938 l 1
 400.000976562 177.974609375 l 1
 400.000976562 154.715820312 l 2
 400.000976562 101.885742188 369.8125 -0.0009765625 252.831054688 -0.0009765625 c 2
 147.170898438 -0.0009765625 l 2
 30.189453125 -0.0009765625 0.0009765625 101.885742188 0.0009765625 154.715820312 c 2
 0.0009765625 199.999023438 l 1
 0.0009765625 203.772460938 l 1
 0.0009765625 554.715820312 l 1
 71.69921875 554.715820312 l 1
 71.69921875 203.772460938 l 1
 71.69921875 199.999023438 l 2
 71.69921875 195.094726562 71.69921875 185.706054688 71.69921875 173.583984375 c 0
 71.69921875 105.662109375 113.208984375 60.3759765625 173.5859375 60.3759765625 c 2
 226.416015625 60.3759765625 l 2
 286.79296875 60.3759765625 328.302734375 105.662109375 328.302734375 173.583984375 c 2
 328.302734375 203.772460938 l 1
 328.302734375 426.4140625 l 1
 328.404296875 426.466796875 l 1
 330.53515625 515.038085938 406.139648438 578.545898438 500.76953125 541.346679688 c 0
EndSplineSet
EndChar

StartChar: bracketleft
Encoding: 91 91 61
Width: 333
Flags: W
LayerCount: 2
Fore
SplineSet
235.309570312 758.490234375 m 1
 114.5546875 758.489257812 l 1
 114.5546875 -41.5107421875 l 1
 235.309570312 -41.5107421875 l 1
 235.309570312 -101.887695312 l 1
 114.5546875 -101.887695312 l 1
 42.8564453125 -101.887695312 l 1
 42.8564453125 818.8671875 l 1
 114.5546875 818.8671875 l 1
 235.309570312 818.8671875 l 1
 235.309570312 758.490234375 l 1
EndSplineSet
EndChar

StartChar: u16B42
Encoding: 92994 92994 62
Width: 576
Flags: W
LayerCount: 2
Fore
SplineSet
433.961914062 381.131835938 m 1
 505.66015625 381.131835938 l 1
 505.66015625 320.754882812 l 1
 505.66015625 0 l 1
 433.961914062 0 l 1
 433.961914062 320.754882812 l 1
 233.961914062 320.754882812 l 1
 233.961914062 0 l 1
 162.263671875 0 l 1
 162.263671875 320.754882812 l 1
 0 320.754882812 l 1
 -0 381.131835938 l 1
 162.263671875 381.131835938 l 1
 162.263671875 483.018554688 l 1
 0 483.018554688 l 1
 -0 554.716796875 l 1
 162.263671875 554.716796875 l 1
 203.7734375 554.716796875 l 1
 233.961914062 554.716796875 l 1
 233.961914062 381.131835938 l 1
 433.961914062 381.131835938 l 1
EndSplineSet
EndChar

StartChar: bracketright
Encoding: 93 93 63
Width: 333
Flags: W
LayerCount: 2
Fore
SplineSet
135.040039062 818.868164062 m 1
 206.73828125 818.869140625 l 1
 206.73828125 -101.885742188 l 1
 135.040039062 -101.885742188 l 1
 14.28515625 -101.885742188 l 1
 14.28515625 -41.5087890625 l 1
 135.040039062 -41.5087890625 l 1
 135.040039062 758.491210938 l 1
 14.28515625 758.491210938 l 1
 14.28515625 818.868164062 l 1
 135.040039062 818.868164062 l 1
EndSplineSet
EndChar

StartChar: u16B60
Encoding: 93024 93024 64
Width: 507
Flags: W
LayerCount: 2
Fore
SplineSet
109.43359375 501.88671875 m 0
 85.052734375 491.84765625 72.1708984375 475.239257812 68.8193359375 453.567382812 c 1
 81.962890625 374.276367188 196.123046875 386.849609375 192.452148438 456.603515625 c 0
 190.106445312 501.17578125 136.006835938 512.829101562 109.43359375 501.88671875 c 0
396.225585938 554.717773438 m 1
 456.602539062 554.71875 l 1
 456.602539062 0.001953125 l 1
 396.225585938 0.001953125 l 1
 396.225585938 450.716796875 l 1
 71.697265625 0.001953125 l 1
 -0.0009765625 0.001953125 l 1
 -0.0009765625 0.001953125 -0.0009765625 274.36328125 -0.0009765625 367.052734375 c 0
 -0.0009765625 406.23828125 -0.0009765625 419.0234375 -0.0009765625 422.666015625 c 2
 -0 422.666015625 l 1
 0.015625 491.043945312 69.4091796875 577.577148438 171.465820312 544.60546875 c 0
 233.951171875 524.41796875 256.721679688 454.780273438 222.641601562 400.000976562 c 0
 193.584960938 353.296875 99.08203125 336.9375 71.697265625 403.067382812 c 1
 71.697265625 104.063476562 l 1
 396.225585938 554.717773438 l 1
EndSplineSet
EndChar

StartChar: underscore
Encoding: 95 95 65
Width: 734
Flags: W
LayerCount: 2
Fore
SplineSet
0 -30.1884765625 m 1
 664.151367188 -30.1884765625 l 1
 664.151367188 -90.5654296875 l 1
 0 -90.5654296875 l 1
 0 -30.1884765625 l 1
EndSplineSet
EndChar

StartChar: u16B3E
Encoding: 92990 92990 66
Width: 314
Flags: W
LayerCount: 2
Fore
SplineSet
0 467.924804688 m 1
 264.151367188 467.924804688 l 1
 264.151367188 422.641601562 l 1
 264.151367188 396.2265625 l 1
 264.151367188 316.981445312 l 1
 264.151367188 294.33984375 l 1
 264.151367188 245.283203125 l 1
 60.3779296875 245.283203125 l 1
 60.3779296875 86.79296875 l 1
 0.0009765625 86.79296875 l 1
 0.0009765625 245.283203125 l 1
 0.0009765625 316.981445312 l 1
 60.3779296875 316.981445312 l 1
 192.453125 316.981445312 l 1
 192.453125 396.2265625 l 1
 0 396.2265625 l 1
 0 467.924804688 l 1
EndSplineSet
EndChar

StartChar: u16B06
Encoding: 92934 92934 67
Width: 595
Flags: W
AnchorPoint: "above" 258.51 600 basechar 0
LayerCount: 2
Fore
SplineSet
509.43359375 554.716796875 m 1
 524.528320312 554.715820312 l 1
 524.528320312 -0.0009765625 l 1
 452.830078125 -0.0009765625 l 1
 452.830078125 483.017578125 l 1
 294.33984375 483.017578125 l 1
 294.33984375 203.772460938 l 1
 294.33984375 181.130859375 l 1
 294.33984375 146.225585938 l 2
 294.33984375 45.2822265625 294.33984375 -3.7744140625 147.169921875 -0.0009765625 c 1
 0 -3.7744140625 0 45.2822265625 0 146.225585938 c 2
 0 181.130859375 l 1
 0 203.772460938 l 1
 0 554.715820312 l 1
 71.6982421875 554.715820312 l 1
 71.6982421875 181.130859375 l 1
 71.54296875 181.130859375 l 1
 71.4775390625 166.819335938 71.4619140625 149.263671875 71.6982421875 139.620117188 c 0
 73.177734375 79.2451171875 75.4716796875 60.376953125 147.169921875 60.376953125 c 0
 215.094726562 60.376953125 221.162109375 79.2451171875 222.641601562 139.620117188 c 0
 223.008789062 154.598632812 222.768554688 188.641601562 222.674804688 199.991210938 c 1
 222.641601562 200 l 1
 222.641601562 554.716796875 l 1
 230.188476562 554.716796875 l 1
 294.33984375 554.716796875 l 1
 452.830078125 554.716796875 l 1
 509.43359375 554.716796875 l 1
EndSplineSet
EndChar

StartChar: u16B32
Encoding: 92978 92978 68
Width: 13
Flags: HW
AnchorPoint: "above" -353.91 600 mark 0
LayerCount: 2
Fore
SplineSet
-514.286132812 720.754882812 m 1
 -193.53125 720.754882812 l 1
 -193.53125 660.377929688 l 1
 -514.286132812 660.377929688 l 1
 -514.286132812 720.754882812 l 1
EndSplineSet
EndChar

StartChar: u16B10
Encoding: 92944 92944 69
Width: 595
Flags: W
AnchorPoint: "above" 262.26 600 basechar 0
LayerCount: 2
Fore
SplineSet
452.830078125 554.716796875 m 1
 524.528320312 554.717773438 l 1
 524.528320312 203.774414062 l 1
 524.528320312 181.1328125 l 1
 524.528320312 146.227539062 l 2
 524.528320312 45.2841796875 524.528320312 -3.7724609375 377.358398438 0.0009765625 c 1
 230.188476562 -3.7724609375 230.188476562 45.2841796875 230.188476562 146.227539062 c 2
 230.188476562 181.1328125 l 1
 230.188476562 203.774414062 l 1
 230.188476562 483.01953125 l 1
 71.6982421875 483.01953125 l 1
 71.6982421875 0.0009765625 l 1
 0 0.0009765625 l 1
 0 554.717773438 l 1
 15.0947265625 554.717773438 l 1
 71.6982421875 554.717773438 l 1
 230.188476562 554.717773438 l 1
 294.33984375 554.717773438 l 1
 301.88671875 554.717773438 l 1
 301.88671875 200.000976562 l 1
 301.853515625 199.9921875 l 1
 301.759765625 188.642578125 301.51953125 154.599609375 301.88671875 139.62109375 c 0
 303.366210938 79.24609375 309.43359375 60.3779296875 377.358398438 60.3779296875 c 0
 449.056640625 60.3779296875 451.350585938 79.24609375 452.830078125 139.62109375 c 0
 453.06640625 149.264648438 453.05078125 166.8203125 452.985351562 181.131835938 c 1
 452.830078125 181.131835938 l 1
 452.830078125 554.716796875 l 1
EndSplineSet
EndChar

StartChar: u16B12
Encoding: 92946 92946 70
Width: 595
Flags: W
AnchorPoint: "above" 262.26 600 basechar 0
LayerCount: 2
Fore
SplineSet
222.641601562 403.7734375 m 2
 222.641601562 426.415039062 222.641601562 494.338867188 166.038085938 494.338867188 c 2
 147.169921875 494.338867188 l 2
 75.4716796875 494.338867188 73.177734375 475.470703125 71.6982421875 415.095703125 c 2
 71.6982421875 139.619140625 l 2
 73.177734375 79.244140625 75.4716796875 60.3759765625 147.169921875 60.3759765625 c 0
 215.094726562 60.3759765625 221.162109375 79.244140625 222.641601562 139.619140625 c 0
 222.641601562 139.620117188 222.641601562 139.622070312 222.641601562 139.622070312 c 1
 222.641601562 139.622070312 l 1
 222.641601562 403.7734375 l 2
524.3125 422.640625 m 1
 524.528320312 422.640625 l 1
 524.528320312 408.489257812 l 1
 524.528320312 350.942382812 l 1
 524.528320312 -0.0009765625 l 1
 452.830078125 -0.0009765625 l 1
 452.830078125 415.095703125 l 2
 451.350585938 475.470703125 445.283203125 494.338867188 377.358398438 494.338867188 c 2
 235.823242188 494.338867188 l 1
 265.9140625 485.881835938 294.338867188 462.385742188 294.338867188 403.772460938 c 2
 294.338867188 203.772460938 l 1
 294.338867188 146.225585938 l 1
 294.338867188 139.622070312 l 1
 294.336914062 139.622070312 l 1
 294.266601562 43.150390625 291.087890625 -3.6904296875 147.168945312 -0 c 1
 25.6923828125 -3.115234375 4.48828125 29.76953125 0.7861328125 98.1123046875 c 1
 0 98.1123046875 l 1
 0 146.225585938 l 1
 0 203.772460938 l 1
 0 350.942382812 l 1
 0 408.489257812 l 1
 0 437.734375 l 1
 0.1591796875 437.734375 l 1
 1.419921875 512.215820312 12.89453125 551.375 116.982421875 554.681640625 c 1
 116.982421875 554.715820312 l 1
 118.17578125 554.715820312 l 2
 127.150390625 554.975585938 136.78125 554.982421875 147.170898438 554.715820312 c 2
 350.944335938 554.715820312 l 2
 361.114257812 554.9765625 370.65234375 554.958984375 379.700195312 554.715820312 c 2
 381.1328125 554.715820312 l 1
 381.1328125 554.666015625 l 1
 495.497070312 551.224609375 521.889648438 507 524.3125 422.640625 c 1
EndSplineSet
EndChar

StartChar: u16B0A
Encoding: 92938 92938 71
Width: 595
Flags: W
AnchorPoint: "above" 262.26 600 basechar 0
LayerCount: 2
Fore
SplineSet
452.830078125 554.716796875 m 1
 524.528320312 554.717773438 l 1
 524.528320312 0.0009765625 l 1
 452.830078125 0.0009765625 l 1
 452.830078125 158.491210938 l 1
 432.572265625 278.005859375 351.756835938 304.823242188 261.752929688 304.823242188 c 2
 259.002929688 304.823242188 l 2
 168.999023438 304.823242188 91.95703125 278.005859375 71.69921875 158.491210938 c 1
 71.69921875 0.0009765625 l 1
 0.0009765625 0.0009765625 l 1
 0.0009765625 554.717773438 l 1
 71.69921875 554.717773438 l 1
 71.69921875 276.168945312 l 1
 109.720703125 341.05078125 171.51171875 366.038085938 258.491210938 366.038085938 c 1
 258.491210938 366.038085938 l 1
 259.124023438 366.038085938 261.631835938 366.038085938 262.264648438 366.038085938 c 1
 262.264648438 366.038085938 l 1
 349.900390625 366.038085938 413.768554688 340.69921875 452.830078125 274.719726562 c 1
 452.830078125 554.716796875 l 1
EndSplineSet
EndChar

StartChar: u16B00
Encoding: 92928 92928 72
Width: 629
Flags: W
AnchorPoint: "above" 286.06 600 basechar 0
LayerCount: 2
Fore
SplineSet
457.188476562 399.956054688 m 1
 471.349609375 420.384765625 473.114257812 445.962890625 465.4609375 465.069335938 c 0
 454.696289062 491.942382812 406.986328125 522.038085938 373.594726562 492.278320312 c 0
 322.15234375 446.432617188 392.176757812 358.291992188 457.188476562 399.956054688 c 1
452.383789062 547.168945312 m 0
 559.155273438 513.447265625 528.298828125 394.795898438 493.891601562 332.075195312 c 0
 488.771484375 322.741210938 479.155273438 304.78515625 468.122070312 286.454101562 c 0
 467.5390625 284.701171875 466.787109375 282.997070312 465.834960938 281.381835938 c 2
 320.307617188 -3.7734375 l 1
 248.609375 -3.7734375 l 1
 -0.001953125 523.098632812 l 1
 59.9306640625 549.513671875 l 1
 286.05859375 69.0048828125 l 1
 443.409179688 374.798828125 l 2
 444.500976562 377.806640625 445.481445312 380.469726562 446.330078125 382.748046875 c 1
 369.849609375 322.239257812 297.831054688 413.8828125 311.63671875 473.869140625 c 0
 326.114257812 536.775390625 388.926757812 567.2109375 452.383789062 547.168945312 c 0
EndSplineSet
EndChar

StartChar: u16B36
Encoding: 92982 92982 73
Width: 20
Flags: W
AnchorPoint: "above" -335.85 600 mark 0
LayerCount: 2
Fore
SplineSet
-228.301757812 792.453125 m 0
 -197.041015625 792.453125 -171.698242188 767.110351562 -171.698242188 735.849609375 c 0
 -171.698242188 704.588867188 -197.041015625 679.24609375 -228.301757812 679.24609375 c 0
 -259.5625 679.24609375 -284.905273438 704.588867188 -284.905273438 735.849609375 c 0
 -284.905273438 767.110351562 -259.5625 792.453125 -228.301757812 792.453125 c 0
-443.396484375 792.453125 m 0
 -412.135742188 792.453125 -386.79296875 767.110351562 -386.79296875 735.849609375 c 0
 -386.79296875 704.588867188 -412.135742188 679.24609375 -443.396484375 679.24609375 c 0
 -474.657226562 679.24609375 -500 704.588867188 -500 735.849609375 c 0
 -500 767.110351562 -474.657226562 792.453125 -443.396484375 792.453125 c 0
EndSplineSet
EndChar

StartChar: u16B30
Encoding: 92976 92976 74
Width: 34
Flags: HW
AnchorPoint: "above" -357.68 600 mark 0
LayerCount: 2
Fore
SplineSet
-357.681640625 792.453125 m 0
 -326.420898438 792.453125 -301.078125 767.110351562 -301.078125 735.849609375 c 0
 -301.078125 704.588867188 -326.420898438 679.24609375 -357.681640625 679.24609375 c 0
 -388.942382812 679.24609375 -414.28515625 704.588867188 -414.28515625 735.849609375 c 0
 -414.28515625 767.110351562 -388.942382812 792.453125 -357.681640625 792.453125 c 0
EndSplineSet
EndChar

StartChar: u16B2E
Encoding: 92974 92974 75
Width: 595
Flags: W
AnchorPoint: "above" 262.55 600 basechar 0
LayerCount: 2
Fore
SplineSet
158.053710938 222.641601562 m 1
 368.733398438 222.641601562 l 1
 262.55078125 470.400390625 l 1
 158.053710938 222.641601562 l 1
464.151367188 0 m 1
 394.609375 162.263671875 l 1
 132.588867188 162.263671875 l 1
 64.1513671875 0 l 1
 -0 22.6416015625 l 1
 226.415039062 554.716796875 l 1
 298.11328125 554.716796875 l 1
 524.528320312 22.6416015625 l 1
 464.151367188 0 l 1
EndSplineSet
EndChar

StartChar: u16B1E
Encoding: 92958 92958 76
Width: 595
Flags: W
AnchorPoint: "above" 258.51 600 basechar 0
LayerCount: 2
Fore
SplineSet
377.358398438 554.716796875 m 1
 524.528320312 558.490234375 524.528320312 509.43359375 524.528320312 408.490234375 c 2
 524.528320312 373.584960938 l 1
 524.528320312 350.943359375 l 1
 524.528320312 0 l 1
 452.830078125 0 l 1
 452.830078125 373.584960938 l 1
 452.985351562 373.584960938 l 1
 453.05078125 387.896484375 453.06640625 405.453125 452.830078125 415.096679688 c 0
 451.350585938 475.471679688 449.056640625 494.33984375 377.358398438 494.33984375 c 0
 309.43359375 494.33984375 303.366210938 475.471679688 301.88671875 415.096679688 c 0
 301.51953125 400.118164062 301.759765625 366.075195312 301.853515625 354.725585938 c 1
 301.88671875 354.716796875 l 1
 301.88671875 0 l 1
 294.33984375 0 l 1
 230.188476562 0 l 1
 71.6982421875 0 l 1
 15.0947265625 0 l 1
 0 -0 l 1
 0 554.716796875 l 1
 71.6982421875 554.716796875 l 1
 71.6982421875 71.6982421875 l 1
 230.188476562 71.6982421875 l 1
 230.188476562 350.943359375 l 1
 230.188476562 373.584960938 l 1
 230.188476562 408.490234375 l 2
 230.188476562 509.43359375 230.188476562 558.490234375 377.358398438 554.716796875 c 1
EndSplineSet
EndChar

StartChar: u16B1D
Encoding: 92957 92957 77
Width: 595
Flags: W
AnchorPoint: "above" 233 600 basechar 0
LayerCount: 2
Fore
SplineSet
524.528320312 505.66015625 m 1
 284.477539062 295.3671875 l 1
 524.528320312 41.5087890625 l 1
 479.245117188 0.099609375 l 1
 234.740234375 251.795898438 l 1
 71.6982421875 108.965820312 l 1
 71.6982421875 0 l 1
 0 -0 l 1
 0 554.716796875 l 1
 71.6982421875 554.716796875 l 1
 71.6982421875 197.892578125 l 1
 483.018554688 550.943359375 l 1
 524.528320312 505.66015625 l 1
EndSplineSet
EndChar

StartChar: u16B22
Encoding: 92962 92962 78
Width: 638
Flags: W
AnchorPoint: "above" 327.52 600 basechar 0
LayerCount: 2
Fore
SplineSet
327.5234375 550.943359375 m 0
 568.193359375 577.358398438 553.098632812 377.358398438 553.098632812 354.716796875 c 2
 553.098632812 0 l 1
 481.400390625 -0 l 1
 481.400390625 354.716796875 l 1
 481.400390625 354.716796875 480.419921875 494.33984375 327.5234375 464.151367188 c 0
 161.541015625 431.37890625 100.268554688 276.88671875 100.268554688 276.88671875 c 1
 100.268554688 0 l 1
 28.5703125 -0 l 1
 28.5703125 554.716796875 l 1
 100.268554688 554.716796875 l 1
 100.268554688 384.9765625 l 1
 134.372070312 445.21875 205.5390625 537.5546875 327.5234375 550.943359375 c 0
EndSplineSet
EndChar

StartChar: u16B2A
Encoding: 92970 92970 79
Width: 652
Flags: W
AnchorPoint: "above" 291.61 600 basechar 0
LayerCount: 2
Fore
SplineSet
368.194335938 543.396484375 m 0
 522.911132812 577.358398438 553.100585938 483.01953125 553.100585938 396.227539062 c 2
 553.100585938 0.0009765625 l 1
 481.40234375 0.0009765625 l 1
 481.40234375 396.227539062 l 1
 481.40234375 396.227539062 486.139648438 498.1640625 390.8359375 475.47265625 c 0
 337.98046875 462.887695312 325.418945312 383.162109375 322.912109375 331.452148438 c 2
 322.912109375 0.0009765625 l 1
 262.53515625 0.0009765625 l 1
 262.53515625 311.633789062 l 2
 261.16796875 359.504882812 251.098632812 461.124023438 190.836914062 475.471679688 c 0
 95.533203125 498.163085938 100.271484375 396.2265625 100.271484375 396.2265625 c 1
 100.271484375 0 l 1
 28.5732421875 0 l 1
 28.5732421875 396.2265625 l 2
 28.5732421875 483.018554688 58.76171875 577.358398438 213.478515625 543.396484375 c 0
 252.080078125 534.922851562 276.432617188 500.206054688 291.612304688 456.928710938 c 1
 305.97265625 500.206054688 329.592773438 534.922851562 368.194335938 543.396484375 c 0
EndSplineSet
EndChar

StartChar: u16B26
Encoding: 92966 92966 80
Width: 595
Flags: W
AnchorPoint: "above" 255.88 600 basechar 0
LayerCount: 2
Fore
SplineSet
71.6982421875 483.018554688 m 1
 71.69921875 316.98046875 l 1
 320.755859375 316.98046875 l 1
 320.755859375 316.98046875 366.788085938 316.98046875 384.909179688 316.98046875 c 0
 415.095703125 316.98046875 464.15234375 320.75390625 464.15234375 392.452148438 c 2
 464.15234375 407.546875 l 2
 464.15234375 449.056640625 445.284179688 481.5390625 384.909179688 483.018554688 c 2
 384.90625 483.018554688 l 1
 384.90625 483.018554688 l 1
 71.6982421875 483.018554688 l 1
524.529296875 392.452148438 m 2
 524.529296875 245.282226562 411.322265625 245.283203125 378.303710938 245.283203125 c 2
 351.328125 245.283203125 l 1
 524.043945312 48.744140625 l 1
 470.186523438 1.4150390625 l 1
 255.87890625 245.283203125 l 1
 71.69921875 245.283203125 l 1
 71.69921875 0 l 1
 0.0009765625 -0 l 1
 0.0009765625 554.716796875 l 1
 67.92578125 554.716796875 l 1
 71.69921875 554.716796875 l 1
 320.755859375 554.716796875 l 1
 378.302734375 554.716796875 l 1
 384.90625 554.716796875 l 1
 384.90625 554.686523438 l 1
 450.379882812 554.081054688 524.529296875 542.606445312 524.529296875 407.546875 c 2
 524.529296875 392.452148438 l 2
EndSplineSet
EndChar

StartChar: u16B25
Encoding: 92965 92965 81
Width: 595
Flags: W
AnchorPoint: "above" 262.26 600 basechar 0
LayerCount: 2
Fore
SplineSet
452.830078125 554.716796875 m 1
 524.528320312 554.716796875 l 1
 524.528320312 0 l 1
 452.830078125 0 l 1
 452.830078125 222.641601562 l 1
 71.6982421875 222.641601562 l 1
 56.603515625 222.641601562 l 1
 0 222.641601562 l 1
 0 554.716796875 l 1
 71.6982421875 554.716796875 l 1
 71.6982421875 283.018554688 l 1
 452.830078125 283.018554688 l 1
 452.830078125 554.716796875 l 1
EndSplineSet
EndChar

StartChar: u16B20
Encoding: 92960 92960 82
Width: 613
Flags: W
AnchorPoint: "above" 196 600 basechar 0
LayerCount: 2
Fore
SplineSet
543.688476562 483.018554688 m 1
 381.423828125 483.014648438 l 1
 381.423828125 381.127929688 l 1
 543.6875 381.127929688 l 1
 543.6875 320.750976562 l 1
 381.423828125 320.750976562 l 1
 381.423828125 230.184570312 l 1
 381.141601562 230.184570312 l 1
 381.013671875 218.653320312 380.826171875 208.92578125 380.55078125 203.770507812 c 0
 377.458984375 145.803710938 367.862304688 76.1552734375 320.41015625 36.61328125 c 0
 278.536132812 1.7197265625 217.3203125 -3.4033203125 164.952148438 0.7783203125 c 0
 101.28515625 5.8623046875 44.73046875 40.8330078125 25.890625 104.001953125 c 0
 14.2861328125 142.913085938 19.1611328125 187.303710938 19.1611328125 227.340820312 c 0
 19.1611328125 238.930664062 19.1611328125 250.520507812 19.1611328125 262.110351562 c 0
 19.1611328125 263.967773438 17.7607421875 274.086914062 19.1611328125 275.469726562 c 2
 19.1611328125 554.71484375 l 1
 90.859375 554.71484375 l 1
 90.859375 162.26171875 l 1
 90.3193359375 162.26171875 l 1
 92.712890625 110.63671875 126.630859375 77.583984375 180.995117188 72.546875 c 0
 245.796875 66.54296875 297.533203125 101.885742188 305.080078125 169.810546875 c 0
 309.043945312 205.487304688 308.434570312 228.424804688 308.853515625 264.150390625 c 0
 308.887695312 267.037109375 309.20703125 290.17578125 309.7265625 318.122070312 c 2
 309.7265625 554.716796875 l 1
 339.915039062 554.716796875 l 1
 381.424804688 554.716796875 l 1
 543.688476562 554.716796875 l 1
 543.688476562 483.018554688 l 1
EndSplineSet
EndChar

StartChar: u16B04
Encoding: 92932 92932 83
Width: 595
Flags: W
AnchorPoint: "above" 262.24 600 basechar 0
LayerCount: 2
Fore
SplineSet
415.094726562 49.056640625 m 0
 439.475585938 59.095703125 452.357421875 75.705078125 455.709960938 97.376953125 c 1
 442.565429688 176.666992188 328.405273438 164.09375 332.076171875 94.33984375 c 0
 334.421875 49.767578125 388.520507812 38.1142578125 415.094726562 49.056640625 c 0
524.466796875 430.188476562 m 1
 524.52734375 430.1875 l 1
 524.52734375 408.489257812 l 1
 524.52734375 350.942382812 l 1
 524.52734375 139.622070312 l 1
 524.52734375 139.622070312 l 1
 524.52734375 133.172851562 524.52734375 129.880859375 524.52734375 128.305664062 c 2
 524.52734375 128.301757812 l 2
 524.52734375 128.298828125 524.52734375 128.296875 524.52734375 128.293945312 c 0
 524.52734375 128.11328125 524.52734375 127.952148438 524.52734375 127.814453125 c 2
 524.512695312 127.815429688 l 1
 524.1875 59.5107421875 454.890625 -26.5595703125 353.061523438 6.3388671875 c 0
 290.576171875 26.5263671875 267.805664062 96.1640625 301.88671875 150.943359375 c 0
 330.943359375 197.646484375 425.446289062 214.005859375 452.831054688 147.876953125 c 1
 452.831054688 400 l 1
 452.831054688 400 l 1
 452.831054688 415.096679688 l 2
 451.3515625 475.471679688 445.284179688 494.33984375 377.359375 494.33984375 c 2
 147.170898438 494.33984375 l 2
 75.47265625 494.33984375 73.1787109375 475.471679688 71.69921875 415.096679688 c 2
 71.69921875 0 l 1
 0.0009765625 -0 l 1
 0.0009765625 350.943359375 l 1
 0.0009765625 408.490234375 l 1
 0.0009765625 430.188476562 l 1
 0.0634765625 430.188476562 l 1
 0.8203125 516.446289062 10.9697265625 558.209960938 147.170898438 554.717773438 c 2
 377.359375 554.717773438 l 2
 513.560546875 558.209960938 523.709960938 516.446289062 524.466796875 430.188476562 c 1
EndSplineSet
EndChar

StartChar: u16B14
Encoding: 92948 92948 84
Width: 709
Flags: W
AnchorPoint: "above" 347.84 600 basechar 0
LayerCount: 2
Fore
SplineSet
425.080078125 86.2919921875 m 0
 537.594726562 86.2919921875 538.404296875 200.000976562 538.404296875 200.000976562 c 1
 538.404296875 554.717773438 l 1
 610.102539062 554.717773438 l 1
 610.102539062 200.000976562 l 2
 610.102539062 177.359375 625.197265625 -22.640625 384.52734375 3.7744140625 c 0
 295.005859375 13.599609375 232.853515625 65.9443359375 192.633789062 116.918945312 c 0
 178.048828125 135.404296875 166.34765625 153.708984375 157.271484375 169.741210938 c 1
 157.271484375 166.0390625 l 2
 157.271484375 100.37890625 131.650390625 57.826171875 99.6865234375 31.9765625 c 0
 78.376953125 14.7431640625 54.2490234375 4.93359375 33.013671875 0.650390625 c 1
 33.013671875 0.650390625 l 1
 33.013671875 0.650390625 33.013671875 0.650390625 33.013671875 0.650390625 c 1
 14.2841796875 68.8349609375 l 1
 81.185546875 79.052734375 85.57421875 130.693359375 85.57421875 294.33984375 c 2
 85.57421875 554.716796875 l 1
 157.272460938 554.716796875 l 1
 157.272460938 277.830078125 l 1
 157.272460938 277.830078125 218.544921875 123.337890625 384.52734375 90.5654296875 c 0
 397.081054688 88.0869140625 408.610351562 86.7529296875 419.19921875 86.392578125 c 0
 421.192382812 86.3251953125 423.15234375 86.2919921875 425.080078125 86.2919921875 c 0
EndSplineSet
EndChar

StartChar: u16B0E
Encoding: 92942 92942 85
Width: 635
Flags: W
AnchorPoint: "above" 276.6 700 basechar 0
LayerCount: 2
Fore
SplineSet
507.81640625 94.33984375 m 0
 507.81640625 145.94140625 423.172851562 153.609375 402.490234375 105.963867188 c 1
 403.702148438 82.46484375 409.40234375 66.1884765625 436.118164062 52.830078125 c 0
 458.759765625 41.509765625 507.81640625 49.7060546875 507.81640625 94.33984375 c 0
553.099609375 483.01953125 m 1
 402.15625 483.017578125 l 1
 402.15625 142.956054688 l 1
 429.904296875 201.938476562 526.21875 182.528320312 545.552734375 124.52734375 c 0
 565.954101562 63.322265625 535.111328125 24.3662109375 501.923828125 11.3203125 c 0
 405.9296875 -26.416015625 330.458007812 37.7353515625 330.458007812 128.301757812 c 0
 330.458007812 129.590820312 330.54296875 130.83984375 330.655273438 132.076171875 c 2
 330.458007812 132.076171875 l 1
 330.458007812 483.01953125 l 1
 100.26953125 483.01953125 l 1
 100.26953125 0.0009765625 l 1
 28.5712890625 0.0009765625 l 1
 28.5712890625 554.717773438 l 1
 100.26953125 554.717773438 l 1
 553.099609375 554.717773438 l 1
 553.099609375 483.01953125 l 1
EndSplineSet
EndChar

StartChar: u16B02
Encoding: 92930 92930 86
Width: 651
Flags: W
AnchorPoint: "above" 303.54 600 basechar 0
LayerCount: 2
Fore
SplineSet
482.129882812 43.517578125 m 0
 510.813476562 45.302734375 554.364257812 79.447265625 536.975585938 120.5546875 c 0
 509.763671875 184.88671875 401.604492188 146.25390625 424.470703125 69.2021484375 c 1
 436.96484375 51.1806640625 455.813476562 41.8798828125 482.129882812 43.517578125 c 0
539.362304688 184.661132812 m 0
 593.97265625 150.309570312 601.1328125 80.498046875 556.599609375 32.240234375 c 0
 509.435546875 -18.8681640625 381.133789062 -18.8681640625 350.9453125 83.0185546875 c 0
 346.458984375 98.1611328125 315.338867188 267.427734375 297.688476562 386.208984375 c 2
 286.78125 448.306640625 l 1
 64.15234375 0 l 1
 0.0009765625 22.6416015625 l 1
 267.92578125 554.716796875 l 1
 268.088867188 554.716796875 l 1
 267.92578125 555.646484375 l 1
 339.153320312 554.716796875 l 1
 339.624023438 554.716796875 l 1
 339.274414062 554.01171875 l 1
 409.359375 145.950195312 l 1
 428.176757812 194.274414062 500.045898438 209.392578125 539.362304688 184.661132812 c 0
EndSplineSet
EndChar

StartChar: u16B21
Encoding: 92961 92961 87
Width: 595
Flags: W
AnchorPoint: "above" 261.97 600 basechar 0
LayerCount: 2
Fore
SplineSet
362.241210938 70.0458984375 m 0
 419.501953125 83.63671875 452.176757812 124.166015625 452.66796875 180.659179688 c 0
 452.712890625 185.859375 452.830078125 213.3828125 452.830078125 218.868164062 c 2
 452.830078125 281.131835938 l 1
 71.6982421875 281.131835938 l 1
 71.6982421875 222.641601562 l 2
 71.6982421875 113.629882812 85.724609375 64.1103515625 261.969726562 60.5888671875 c 0
 295.466796875 61.060546875 329.58984375 62.2958984375 362.241210938 70.0458984375 c 0
524.529296875 200.143554688 m 2
 524.884765625 192.788085938 525.057617188 185.321289062 524.948242188 177.7890625 c 0
 524.32421875 134.7734375 515.264648438 90.064453125 487.913085938 57.240234375 c 0
 448.37109375 9.787109375 380.786132812 0.4609375 322.819335938 -2.630859375 c 0
 314.575195312 -3.0703125 306.327148438 -3.3427734375 298.077148438 -3.5146484375 c 1
 298.114257812 -3.7734375 l 1
 271.338867188 -3.7734375 l 2
 266.572265625 -3.775390625 262.625 -4.0791015625 258.889648438 -3.7724609375 c 2
 233.962890625 -3.7724609375 l 2
 33.962890625 -3.7724609375 0.0009765625 71.69921875 0.0009765625 165.095703125 c 2
 0.0009765625 192.454101562 l 1
 0.0009765625 222.642578125 l 1
 0.0009765625 554.717773438 l 1
 71.69921875 554.717773438 l 1
 71.69921875 341.509765625 l 1
 452.831054688 341.509765625 l 1
 452.831054688 554.717773438 l 1
 524.529296875 554.717773438 l 1
 524.529296875 200.143554688 l 2
EndSplineSet
EndChar

StartChar: u16B18
Encoding: 92952 92952 88
Width: 595
Flags: W
AnchorPoint: "above" 262.26 600 basechar 0
LayerCount: 2
Fore
SplineSet
0 483.018554688 m 1
 -0.001953125 554.720703125 l 1
 524.526367188 554.720703125 l 1
 524.526367188 483.022460938 l 1
 298.111328125 483.022460938 l 1
 298.111328125 139.624023438 l 2
 299.46484375 84.4130859375 301.53515625 63.9248046875 356.701171875 60.8212890625 c 1
 413.141601562 63.923828125 422.639648438 84.3994140625 422.639648438 139.624023438 c 0
 422.639648438 169.815429688 411.319335938 203.77734375 411.319335938 203.77734375 c 1
 411.319335938 203.77734375 l 1
 411.319335938 203.77734375 411.319335938 203.77734375 411.319335938 203.77734375 c 1
 483.017578125 218.872070312 l 1
 490.669921875 174.204101562 l 2
 494.338867188 143.400390625 494.814453125 127.631835938 493.383789062 104.311523438 c 0
 489.370117188 38.8798828125 469.247070312 4.03515625 373.583984375 0.17578125 c 1
 373.583984375 0.00390625 l 1
 368.465820312 -0.126953125 363.52734375 -0.193359375 358.759765625 -0.1962890625 c 0
 357.905273438 -0.197265625 357.056640625 -0.1962890625 356.213867188 -0.1923828125 c 0
 355.397460938 -0.189453125 354.5859375 -0.1845703125 353.779296875 -0.177734375 c 0
 353.756835938 -0.177734375 353.734375 -0.177734375 353.711914062 -0.177734375 c 0
 350.08984375 -0.1708984375 346.408203125 -0.140625 342.611328125 -0.06640625 c 0
 341.623046875 -0.046875 340.626953125 -0.0244140625 339.622070312 0.0009765625 c 2
 339.622070312 0.173828125 l 1
 269.26171875 3.0634765625 242.630859375 23.0615234375 232.551757812 59.998046875 c 0
 227.51171875 78.4658203125 226.610351562 101.168945312 226.450195312 128.084960938 c 1
 226.415039062 128.08203125 l 1
 226.415039062 128.08203125 226.415039062 128.08203125 226.415039062 128.08203125 c 1
 226.415039062 129.995117188 226.415039062 134.8984375 226.415039062 146.2265625 c 1
 226.415039062 146.2265625 226.415039062 146.2265625 226.415039062 146.2265625 c 1
 226.415039062 153.206054688 226.415039062 162.602539062 226.415039062 175.280273438 c 0
 226.415039062 183.303710938 226.415039062 192.952148438 226.415039062 203.7734375 c 1
 226.415039062 203.7734375 226.415039062 203.7734375 226.415039062 203.7734375 c 1
 226.415039062 291.104492188 226.415039062 456.118164062 226.415039062 483.018554688 c 1
 0 483.018554688 l 1
EndSplineSet
EndChar

StartChar: u16B0C
Encoding: 92940 92940 89
Width: 595
Flags: W
AnchorPoint: "above" 262.26 600 basechar 0
LayerCount: 2
Fore
SplineSet
452.830078125 554.716796875 m 1
 524.528320312 554.717773438 l 1
 524.528320312 0.0009765625 l 1
 486.791992188 0.0009765625 l 1
 452.830078125 0.0009765625 l 1
 71.6982421875 0.0009765625 l 1
 52.830078125 0.0009765625 l 1
 0 0.0009765625 l 1
 0 554.717773438 l 1
 71.6982421875 554.717773438 l 1
 71.6982421875 362.264648438 l 1
 309.434570312 362.264648438 l 1
 309.434570312 290.56640625 l 1
 71.6982421875 290.56640625 l 1
 71.6982421875 71.6982421875 l 1
 452.830078125 71.6982421875 l 1
 452.830078125 554.716796875 l 1
EndSplineSet
EndChar

StartChar: u16B08
Encoding: 92936 92936 90
Width: 623
Flags: W
AnchorPoint: "above" 276.26 600 basechar 0
LayerCount: 2
Fore
SplineSet
123.719726562 505.66015625 m 0
 99.337890625 495.62109375 86.4580078125 479.01171875 83.10546875 457.340820312 c 1
 96.2490234375 378.048828125 210.409179688 390.622070312 206.73828125 460.376953125 c 0
 204.392578125 504.94921875 150.293945312 516.602539062 123.719726562 505.66015625 c 0
538.815429688 200.142578125 m 2
 539.170898438 192.787109375 539.344726562 185.318359375 539.235351562 177.786132812 c 0
 539.178710938 173.844726562 539.0234375 169.887695312 538.817382812 165.928710938 c 2
 538.817382812 162.26171875 l 1
 538.622070312 162.26171875 l 1
 536.16796875 124.21875 526.272460938 86.1259765625 502.200195312 57.23828125 c 0
 462.658203125 9.78515625 395.073242188 0.458984375 337.106445312 -2.6328125 c 0
 328.862304688 -3.072265625 320.614257812 -3.3447265625 312.364257812 -3.5166015625 c 1
 312.401367188 -3.775390625 l 1
 285.625976562 -3.775390625 l 2
 280.859375 -3.77734375 276.912109375 -4.0810546875 273.176757812 -3.7744140625 c 2
 248.25 -3.7744140625 l 2
 48.25 -3.7744140625 14.2880859375 71.697265625 14.2880859375 165.09375 c 2
 14.2880859375 184.905273438 l 1
 14.2880859375 184.905273438 14.2880859375 200.10546875 14.2880859375 222.641601562 c 0
 14.2880859375 272.579101562 14.2880859375 358.559570312 14.2880859375 395.140625 c 0
 14.2880859375 417.584960938 14.2880859375 424.908203125 14.2880859375 426.995117188 c 2
 14.306640625 426.994140625 l 1
 14.693359375 495.284179688 83.9716796875 581.26171875 185.754882812 548.37890625 c 0
 248.240234375 528.19140625 271.010742188 458.553710938 236.9296875 403.774414062 c 0
 207.873046875 357.071289062 113.370117188 340.711914062 85.986328125 406.841796875 c 1
 85.986328125 222.642578125 l 2
 85.986328125 113.630859375 100.012695312 64.111328125 276.2578125 60.58984375 c 0
 309.754882812 61.0615234375 343.877929688 62.296875 376.529296875 70.046875 c 0
 433.790039062 83.6376953125 466.463867188 124.166015625 466.955078125 180.659179688 c 0
 467 185.859375 467.1171875 213.3828125 467.1171875 218.868164062 c 2
 467.1171875 554.716796875 l 1
 538.815429688 554.716796875 l 1
 538.815429688 200.142578125 l 2
EndSplineSet
EndChar

StartChar: u16B24
Encoding: 92964 92964 91
Width: 694
Flags: W
AnchorPoint: "above" 264.15 600 basechar 0
LayerCount: 2
Fore
SplineSet
632.046875 506.095703125 m 0
 667.924804688 460.376953125 650.553710938 377.58984375 596.560546875 356.868164062 c 0
 581.130859375 350.946289062 573.583984375 350.946289062 573.583984375 350.946289062 c 1
 554.254882812 395.611328125 l 1
 569.810546875 400.002929688 586.012695312 404.849609375 596.225585938 422.64453125 c 0
 618.442382812 461.356445312 585.01953125 498.651367188 556.760742188 503.880859375 c 0
 525.36328125 509.69140625 502.866210938 498.325195312 487.874023438 473.762695312 c 0
 482.009765625 460.958007812 475.979492188 441.192382812 479.245117188 414.897460938 c 0
 482.965820312 384.936523438 524.528320312 226.41796875 524.528320312 154.719726562 c 0
 524.528320312 67.927734375 494.33984375 -26.412109375 339.623046875 7.5498046875 c 0
 301.021484375 16.0234375 277.401367188 50.740234375 263.041015625 94.017578125 c 1
 247.861328125 50.740234375 223.508789062 16.0234375 184.907226562 7.5498046875 c 0
 30.1904296875 -26.412109375 0.001953125 67.927734375 0.001953125 154.719726562 c 2
 0.001953125 550.946289062 l 1
 71.7001953125 550.946289062 l 1
 71.7001953125 154.719726562 l 1
 71.7001953125 154.719726562 66.9619140625 52.783203125 162.265625 75.474609375 c 0
 222.52734375 89.822265625 232.596679688 191.44140625 233.963867188 239.3125 c 2
 233.963867188 550.9453125 l 1
 294.340820312 550.9453125 l 1
 294.340820312 219.494140625 l 2
 296.84765625 167.784179688 309.409179688 88.05859375 362.264648438 75.4736328125 c 0
 457.568359375 52.7822265625 452.831054688 154.71875 452.831054688 154.71875 c 1
 452.831054688 204.036132812 428.236328125 310.856445312 416.862304688 357.619140625 c 0
 412.022460938 377.517578125 408.744140625 397.791992188 407.779296875 418.248046875 c 0
 406.971679688 435.376953125 407.642578125 451.27734375 411.321289062 464.151367188 c 0
 418.868164062 490.56640625 428.807617188 507.088867188 449.056640625 524.528320312 c 0
 450.38671875 525.673828125 451.74609375 526.57421875 453.122070312 527.267578125 c 0
 488.262695312 557.338867188 579.61328125 572.911132812 632.046875 506.095703125 c 0
EndSplineSet
EndChar

StartChar: u16B16
Encoding: 92950 92950 92
Width: 598
Flags: W
AnchorPoint: "above" 262.26 600 basechar 0
LayerCount: 2
Fore
SplineSet
418.868164062 45.283203125 m 0
 443.249023438 55.322265625 456.130859375 71.931640625 459.483398438 93.603515625 c 1
 446.338867188 172.893554688 332.178710938 160.3203125 335.849609375 90.56640625 c 0
 338.1953125 45.994140625 392.293945312 34.3408203125 418.868164062 45.283203125 c 0
298.109375 554.6953125 m 1
 494.7421875 553.743164062 528.303710938 478.65234375 528.303710938 385.850585938 c 2
 528.303710938 366.0390625 l 1
 528.303710938 366.0390625 528.303710938 350.838867188 528.303710938 328.302734375 c 0
 528.303710938 278.365234375 528.303710938 192.384765625 528.303710938 155.803710938 c 0
 528.303710938 133.359375 528.303710938 126.036132812 528.303710938 123.94921875 c 2
 528.28515625 123.950195312 l 1
 527.8984375 55.66015625 458.620117188 -30.3173828125 356.836914062 2.56640625 c 0
 294.3515625 22.75390625 271.581054688 92.3916015625 305.662109375 147.170898438 c 0
 334.71875 193.874023438 429.221679688 210.233398438 456.60546875 144.103515625 c 1
 456.60546875 328.302734375 l 2
 456.60546875 438.177734375 442.373046875 487.620117188 262.1328125 490.435546875 c 1
 86.0009765625 488.202148438 75.333984375 455.518554688 71.69921875 328.302734375 c 2
 71.69921875 290.56640625 l 1
 0.0009765625 290.56640625 l 1
 0.0009765625 385.849609375 l 2
 0.0009765625 478.651367188 33.5615234375 553.743164062 230.193359375 554.6953125 c 1
 230.190429688 554.717773438 l 1
 233.963867188 554.717773438 l 1
 294.340820312 554.717773438 l 1
 298.114257812 554.717773438 l 1
 298.109375 554.6953125 l 1
EndSplineSet
EndChar

StartChar: braceleft
Encoding: 123 123 93
Width: 386
Flags: W
LayerCount: 2
Fore
SplineSet
212.766601562 6.7666015625 m 0
 223.372070312 -5.1103515625 237.060546875 -13.81640625 251.921875 -19.5322265625 c 2
 274.166992188 -28.087890625 l 1
 259.19140625 -61.8701171875 l 1
 230.94140625 -50.1806640625 l 2
 191.072265625 -33.6826171875 159.200195312 -1.4267578125 145.359375 39.4404296875 c 0
 135.901367188 67.3681640625 134.985351562 97.3154296875 144.813476562 124.224609375 c 0
 147.5234375 131.64453125 150.288085938 144.174804688 150.903320312 152.05078125 c 0
 155.346679688 208.905273438 135.6796875 248.263671875 110.8359375 276.133789062 c 0
 98.375 290.11328125 83.4990234375 301.736328125 67.416015625 311.331054688 c 2
 3.3427734375 349.556640625 l 1
 -0.001953125 351.477539062 l 1
 0.060546875 351.514648438 l 1
 -0.001953125 351.551757812 l 1
 18.7392578125 362.658203125 l 1
 67.4169921875 391.698242188 l 2
 83.5 401.29296875 98.3759765625 412.916015625 110.836914062 426.895507812 c 0
 135.680664062 454.765625 155.34765625 494.124023438 150.904296875 550.978515625 c 0
 150.2890625 558.854492188 147.524414062 571.384765625 144.814453125 578.8046875 c 0
 134.986328125 605.713867188 135.90234375 635.661132812 145.360351562 663.588867188 c 0
 159.201171875 704.456054688 191.073242188 736.711914062 230.942382812 753.209960938 c 2
 259.192382812 764.899414062 l 1
 274.16796875 731.1171875 l 1
 251.922851562 722.561523438 l 2
 237.061523438 716.845703125 223.372070312 708.137695312 212.766601562 696.260742188 c 0
 192.690429688 673.77734375 186.0703125 644.752929688 190.521484375 597.874023438 c 0
 191.831054688 584.081054688 195.908203125 577.359375 199.606445312 557.490234375 c 0
 203.456054688 535.850585938 203.6484375 532.078125 203.615234375 518.603515625 c 0
 203.508789062 474.755859375 190.056640625 440.013671875 168.80078125 410.543945312 c 0
 152.936523438 388.549804688 132.48046875 370.265625 109.499023438 355.868164062 c 2
 103.677734375 351.2890625 l 1
 109.499023438 347.159179688 l 2
 132.48046875 332.76171875 152.936523438 314.477539062 168.80078125 292.483398438 c 0
 190.056640625 263.013671875 203.508789062 228.271484375 203.615234375 184.423828125 c 0
 203.6484375 170.94921875 203.456054688 167.176757812 199.606445312 145.537109375 c 0
 195.908203125 125.66796875 191.831054688 118.946289062 190.521484375 105.153320312 c 0
 186.0703125 58.2744140625 192.690429688 29.25 212.766601562 6.7666015625 c 0
EndSplineSet
EndChar

StartChar: degree
Encoding: 176 176 94
Width: 274
Flags: W
LayerCount: 2
Fore
SplineSet
101.88671875 591.509765625 m 0
 125.853515625 591.509765625 145.283203125 610.939453125 145.283203125 634.90625 c 0
 145.283203125 658.873046875 125.853515625 678.301757812 101.88671875 678.301757812 c 0
 77.919921875 678.301757812 58.490234375 658.873046875 58.490234375 634.90625 c 0
 58.490234375 610.939453125 77.919921875 591.509765625 101.88671875 591.509765625 c 0
101.88671875 736.79296875 m 0
 158.157226562 736.79296875 203.7734375 691.176757812 203.7734375 634.90625 c 0
 203.7734375 578.635742188 158.157226562 533.01953125 101.88671875 533.01953125 c 0
 45.6162109375 533.01953125 0 578.635742188 0 634.90625 c 0
 -0 691.176757812 45.6162109375 736.79296875 101.88671875 736.79296875 c 0
EndSplineSet
EndChar

StartChar: braceright
Encoding: 125 125 95
Width: 372
Flags: W
LayerCount: 2
Fore
SplineSet
302.677734375 351.512695312 m 1
 302.737304688 351.473632812 l 1
 299.392578125 349.552734375 l 1
 235.319335938 311.327148438 l 2
 219.236328125 301.732421875 204.360351562 290.109375 191.899414062 276.129882812 c 0
 167.055664062 248.259765625 147.388671875 208.901367188 151.83203125 152.046875 c 0
 152.447265625 144.170898438 155.211914062 131.640625 157.921875 124.220703125 c 0
 167.75 97.3115234375 166.833984375 67.3642578125 157.375976562 39.4365234375 c 0
 143.53515625 -1.4306640625 111.663085938 -33.6865234375 71.7939453125 -50.1845703125 c 2
 43.5439453125 -61.8740234375 l 1
 28.568359375 -28.091796875 l 1
 50.8134765625 -19.5361328125 l 2
 65.6748046875 -13.8203125 79.3642578125 -5.1123046875 89.9697265625 6.7646484375 c 0
 110.045898438 29.248046875 116.666015625 58.2724609375 112.21484375 105.151367188 c 0
 110.905273438 118.944335938 106.828125 125.666015625 103.129882812 145.53515625 c 0
 99.2802734375 167.174804688 99.087890625 170.947265625 99.12109375 184.421875 c 0
 99.2275390625 228.26953125 112.6796875 263.01171875 133.935546875 292.481445312 c 0
 149.799804688 314.475585938 170.255859375 332.759765625 193.237304688 347.157226562 c 2
 199.05859375 351.287109375 l 1
 193.237304688 355.866210938 l 2
 170.255859375 370.263671875 149.799804688 388.547851562 133.935546875 410.541992188 c 0
 112.6796875 440.01171875 99.2275390625 474.75390625 99.12109375 518.6015625 c 0
 99.0888671875 532.076171875 99.28125 535.848632812 103.130859375 557.48828125 c 0
 106.829101562 577.357421875 110.90625 584.079101562 112.215820312 597.872070312 c 0
 116.666992188 644.750976562 110.046875 673.775390625 89.970703125 696.258789062 c 0
 79.365234375 708.135742188 65.67578125 716.84375 50.814453125 722.559570312 c 2
 28.5693359375 731.115234375 l 1
 43.544921875 764.897460938 l 1
 71.794921875 753.208007812 l 2
 111.6640625 736.709960938 143.537109375 704.454101562 157.377929688 663.586914062 c 0
 166.8359375 635.659179688 167.751953125 605.711914062 157.923828125 578.802734375 c 0
 155.213867188 571.3828125 152.44921875 558.852539062 151.833984375 550.9765625 c 0
 147.390625 494.122070312 167.057617188 454.763671875 191.901367188 426.893554688 c 0
 204.362304688 412.9140625 219.23828125 401.291015625 235.321289062 391.696289062 c 2
 283.999023438 362.65625 l 1
 302.740234375 351.549804688 l 1
 302.677734375 351.512695312 l 1
EndSplineSet
EndChar

StartChar: u16B3D
Encoding: 92989 92989 96
Width: 307
Flags: W
LayerCount: 2
Fore
SplineSet
0 467.924804688 m 1
 256.603515625 467.924804688 l 1
 256.603515625 403.7734375 l 1
 256.603515625 396.2265625 l 1
 256.603515625 86.79296875 l 1
 184.905273438 86.79296875 l 1
 184.905273438 396.2265625 l 1
 0 396.2265625 l 1
 0 467.924804688 l 1
EndSplineSet
EndChar

StartChar: u16B3C
Encoding: 92988 92988 98
Width: 348
Flags: W
LayerCount: 2
Fore
SplineSet
71.6982421875 147.169921875 m 1
 226.415039062 147.169921875 l 1
 226.415039062 256.603515625 l 1
 71.6982421875 256.603515625 l 1
 71.6982421875 147.169921875 l 1
226.415039062 467.924804688 m 1
 298.11328125 467.924804688 l 1
 298.11328125 86.79296875 l 1
 252.830078125 86.79296875 l 1
 226.415039062 86.79296875 l 1
 71.6982421875 86.79296875 l 1
 26.4150390625 86.79296875 l 1
 0 86.79296875 l 1
 -0 316.981445312 l 1
 52.830078125 316.981445312 l 1
 71.6982421875 316.981445312 l 1
 226.415039062 316.981445312 l 1
 226.415039062 467.924804688 l 1
EndSplineSet
EndChar

StartChar: u16B51
Encoding: 93009 93009 99
Width: 522
Flags: W
LayerCount: 2
Fore
SplineSet
382.0234375 548.831054688 m 1
 457.850585938 548.831054688 l 1
 457.850585938 -5.8857421875 l 1
 382.0234375 -5.8857421875 l 1
 382.0234375 185.735351562 l 1
 344.301757812 151.938476562 279.21875 118.215820312 229.37109375 111.094726562 c 0
 0.0009765625 78.3271484375 2.9560546875 284.6796875 2.9560546875 307.321289062 c 2
 2.9560546875 548.831054688 l 1
 78.427734375 548.831054688 l 1
 78.427734375 307.321289062 l 1
 78.427734375 307.321289062 70.880859375 133.736328125 236.918945312 175.24609375 c 0
 292.782226562 189.211914062 348.013671875 220.51171875 382.0234375 252.388671875 c 1
 382.0234375 548.831054688 l 1
EndSplineSet
EndChar

StartChar: u16B52
Encoding: 93010 93010 100
Width: 541
Flags: W
LayerCount: 2
Fore
SplineSet
460.416015625 403.548828125 m 0
 462.232421875 323.588867188 448.180664062 287.633789062 418.416992188 271.474609375 c 1
 448.180664062 255.315429688 462.232421875 219.359375 460.416015625 139.399414062 c 0
 463.469726562 5.01171875 421.702148438 -5.068359375 335.849609375 -5.8212890625 c 1
 335.849609375 -5.8837890625 l 1
 314.151367188 -5.8837890625 l 1
 256.604492188 -5.8837890625 l 1
 207.547851562 -5.8837890625 l 1
 184.90625 -5.8837890625 l 1
 150.000976562 -5.8837890625 l 2
 49.0576171875 -5.8837890625 0.0009765625 -5.8837890625 3.7744140625 141.286132812 c 2
 3.7744140625 175.248046875 l 1
 64.1513671875 175.248046875 l 1
 64.1513671875 141.286132812 l 2
 64.1513671875 73.361328125 83.01953125 67.2939453125 143.39453125 65.814453125 c 0
 153.038085938 65.578125 170.59375 65.59375 184.905273438 65.66015625 c 1
 184.905273438 65.8154296875 l 1
 320.756835938 65.8154296875 l 2
 380.57421875 67.28125 399.635742188 73.2880859375 399.982421875 139.458007812 c 0
 399.635742188 209.640625 380.57421875 234.159179688 320.756835938 235.625 c 0
 302.640625 236.069335938 256.603515625 235.625 256.603515625 235.625 c 1
 200 235.625 l 1
 200 258.266601562 l 1
 200 284.681640625 l 1
 200 307.323242188 l 1
 256.603515625 307.323242188 l 1
 256.603515625 307.323242188 302.640625 306.87890625 320.756835938 307.323242188 c 0
 380.57421875 308.7890625 399.635742188 333.307617188 399.982421875 403.490234375 c 0
 399.635742188 469.66015625 380.57421875 475.666992188 320.756835938 477.1328125 c 2
 184.905273438 477.1328125 l 1
 184.905273438 477.288085938 l 1
 170.59375 477.354492188 153.038085938 477.370117188 143.39453125 477.133789062 c 0
 83.01953125 475.654296875 64.1513671875 469.586914062 64.1513671875 401.662109375 c 2
 64.1513671875 367.700195312 l 1
 3.7744140625 367.700195312 l 1
 3.7744140625 401.662109375 l 2
 0.0009765625 548.83203125 49.0576171875 548.83203125 150.000976562 548.83203125 c 2
 184.90625 548.83203125 l 1
 207.547851562 548.83203125 l 1
 256.604492188 548.83203125 l 1
 314.151367188 548.83203125 l 1
 335.849609375 548.83203125 l 1
 335.849609375 548.76953125 l 1
 421.702148438 548.016601562 463.469726562 537.936523438 460.416015625 403.548828125 c 0
EndSplineSet
EndChar

StartChar: u16B53
Encoding: 93011 93011 101
Width: 507
Flags: W
LayerCount: 2
Fore
SplineSet
456.53515625 401.284179688 m 1
 456.602539062 401.284179688 l 1
 456.602539062 156.000976562 l 1
 456.420898438 156.000976562 l 1
 455.7890625 136.018554688 453.038085938 81.083984375 441.509765625 50.3408203125 c 0
 407.547851562 -40.2255859375 279.24609375 5.0576171875 279.24609375 5.0576171875 c 1
 298.114257812 61.6611328125 l 1
 320.755859375 50.3408203125 339.624023438 50.3408203125 347.170898438 54.1142578125 c 0
 381.982421875 71.5205078125 381.46875 124.233398438 381.1796875 156.000976562 c 1
 381.1328125 156.000976562 l 1
 381.1328125 393.737304688 l 2
 381.1328125 469.208984375 350.944335938 472.982421875 332.076171875 472.982421875 c 0
 274.078125 472.982421875 268.515625 405.350585938 265.208007812 314.491210938 c 1
 316.981445312 314.491210938 l 1
 316.981445312 254.114257812 l 1
 139.623046875 254.114257812 l 1
 139.623046875 314.491210938 l 1
 191.396484375 314.491210938 l 1
 188.088867188 405.350585938 182.526367188 472.982421875 124.528320312 472.982421875 c 0
 105.66015625 472.982421875 75.4716796875 469.208984375 75.4716796875 393.737304688 c 2
 75.4716796875 156.000976562 l 1
 75.4248046875 156.000976562 l 1
 75.1357421875 124.233398438 74.6220703125 71.5205078125 109.43359375 54.1142578125 c 0
 116.98046875 50.3408203125 135.848632812 50.3408203125 158.490234375 61.6611328125 c 1
 177.358398438 5.0576171875 l 1
 177.358398438 5.0576171875 49.056640625 -40.2255859375 15.0947265625 50.3408203125 c 0
 3.56640625 81.083984375 0.8154296875 136.018554688 0.18359375 156.000976562 c 1
 0.001953125 156.000976562 l 1
 0.001953125 401.284179688 l 1
 0.0703125 401.284179688 l 1
 1.4990234375 503.4765625 32.6904296875 555.568359375 135.850585938 548.454101562 c 0
 190.567382812 544.680664062 216.0390625 499.397460938 228.302734375 444.680664062 c 1
 240.56640625 499.397460938 266.038085938 544.680664062 320.754882812 548.454101562 c 0
 423.915039062 555.568359375 455.106445312 503.4765625 456.53515625 401.284179688 c 1
EndSplineSet
EndChar

StartChar: u16B54
Encoding: 93012 93012 102
Width: 596
Flags: W
LayerCount: 2
Fore
SplineSet
458.375976562 139.776367188 m 0
 462.569335938 220.545898438 378.008789062 254.522460938 354.51953125 262.376953125 c 1
 349.080078125 255.3046875 345.588867188 249.14453125 340.75 240.611328125 c 0
 338.350585938 236.37890625 335.693359375 231.693359375 332.408203125 226.21875 c 0
 308.631835938 186.586914062 303.235351562 131.739257812 319.857421875 98.6376953125 c 0
 330.415039062 77.6162109375 348.735351562 65.66015625 374.315429688 63.1025390625 c 2
 374.313476562 63.1025390625 l 2
 385.177734375 62.01953125 412.666992188 61.40234375 433.294921875 79.1171875 c 0
 448.52734375 92.19921875 456.96484375 112.609375 458.375976562 139.776367188 c 0
187.33984375 396.494140625 m 1
 190.514648438 408.21875 195.680664062 429.508789062 195.680664062 443.891601562 c 0
 195.680664062 468.850585938 186.685546875 486.57421875 170.352539062 493.796875 c 0
 165.434570312 495.970703125 160.057617188 497.022460938 154.662109375 497.022460938 c 0
 144.754882812 497.022460938 134.786132812 493.475585938 127.470703125 486.822265625 c 0
 116.252929688 476.618164062 113.262695312 461.439453125 119.048828125 444.079101562 c 0
 127.78125 417.884765625 165.780273438 402.438476562 187.33984375 396.494140625 c 1
506.85546875 203.869140625 m 2
 531.982421875 128.489257812 515.970703125 63.140625 462.932617188 24.5771484375 c 0
 410.482421875 -13.552734375 334.14453125 -15.1962890625 285.362304688 20.765625 c 0
 238.946289062 54.982421875 226.508789062 116.240234375 251.240234375 188.833984375 c 0
 265.4921875 230.672851562 280.422851562 262.344726562 297.747070312 287.307617188 c 1
 290.034179688 290.650390625 282.165039062 294.147460938 274.47265625 297.569335938 c 0
 259.909179688 304.043945312 245.955078125 310.248046875 235.295898438 314.38671875 c 1
 233.209960938 307.309570312 229.864257812 296.6796875 224.712890625 280.314453125 c 0
 216.497070312 254.215820312 205.3203125 219.086914062 193.666015625 182.592773438 c 0
 170.36328125 109.626953125 141.379882812 34.98046875 134.130859375 12.427734375 c 2
 128.98828125 -3.685546875 l 1
 63.623046875 19.4384765625 l 1
 66.7255859375 27.9453125 l 2
 67.298828125 29.5185546875 122.435546875 183.904296875 167.31640625 334.864257812 c 1
 140.538085938 344.677734375 74.66796875 373.403320312 64.541015625 421.420898438 c 0
 57.14453125 456.487304688 65.869140625 491.783203125 87.87890625 515.833984375 c 0
 110.678710938 540.752929688 145.674804688 551.779296875 186.430664062 546.90234375 c 0
 213.2109375 543.692382812 236.119140625 527.701171875 247.7109375 504.125 c 0
 262.09375 474.874023438 263.053710938 426.754882812 250.495117188 374.265625 c 1
 266.512695312 367.271484375 309.161132812 349.59375 340.109375 336.875976562 c 1
 410.880859375 427.5859375 477.987304688 456.928710938 480.865234375 458.15625 c 2
 488.788085938 461.537109375 l 1
 517.340820312 408.509765625 l 1
 507.8125 404.466796875 l 2
 451.284179688 380.484375 416.66796875 338.98828125 395.740234375 313.448242188 c 1
 455.452148438 282.557617188 491.838867188 246.678710938 506.807617188 204.008789062 c 2
 506.85546875 203.869140625 l 2
EndSplineSet
EndChar

StartChar: u16B55
Encoding: 93013 93013 103
Width: 513
Flags: W
LayerCount: 2
Fore
SplineSet
460.4921875 407.322265625 m 0
 462.049804688 314.1953125 441.315429688 282.349609375 398.555664062 271.467773438 c 1
 441.315429688 260.5859375 462.049804688 228.74609375 460.4921875 135.619140625 c 0
 462.680664062 4.8095703125 420.892578125 -5.08203125 335.848632812 -5.8271484375 c 1
 335.848632812 -5.8896484375 l 1
 314.150390625 -5.8896484375 l 1
 256.603515625 -5.8896484375 l 1
 207.546875 -5.8896484375 l 1
 184.905273438 -5.8896484375 l 1
 150 -5.8896484375 l 2
 49.056640625 -5.8896484375 -0 -5.8896484375 3.7734375 141.280273438 c 2
 3.7734375 175.2421875 l 1
 64.150390625 175.2421875 l 1
 64.150390625 141.280273438 l 2
 64.150390625 73.35546875 83.0185546875 67.2880859375 143.393554688 65.80859375 c 0
 153.037109375 65.572265625 170.592773438 65.587890625 184.905273438 65.654296875 c 1
 184.905273438 65.80859375 l 1
 320.756835938 65.80859375 l 2
 379.458984375 67.248046875 398.916992188 73.0419921875 399.950195312 135.796875 c 0
 398.916992188 203.0078125 379.458984375 226.634765625 320.756835938 228.07421875 c 0
 302.640625 228.518554688 256.603515625 228.07421875 256.603515625 228.07421875 c 1
 237.735351562 228.07421875 l 1
 237.735351562 171.470703125 l 1
 166.037109375 171.470703125 l 1
 166.037109375 367.697265625 l 1
 237.735351562 367.697265625 l 1
 237.735351562 314.8671875 l 1
 256.603515625 314.8671875 l 1
 256.603515625 314.8671875 302.640625 314.422851562 320.756835938 314.8671875 c 0
 379.458984375 316.306640625 398.916992188 339.93359375 399.950195312 407.14453125 c 0
 398.916992188 469.899414062 379.458984375 475.693359375 320.756835938 477.1328125 c 2
 184.905273438 477.1328125 l 1
 184.905273438 477.287109375 l 1
 170.592773438 477.353515625 153.037109375 477.369140625 143.393554688 477.1328125 c 0
 83.0185546875 475.653320312 64.150390625 469.5859375 64.150390625 401.661132812 c 2
 64.150390625 367.69921875 l 1
 3.7734375 367.69921875 l 1
 3.7734375 401.661132812 l 2
 0 548.831054688 49.056640625 548.831054688 150 548.831054688 c 2
 184.905273438 548.831054688 l 1
 207.546875 548.831054688 l 1
 256.603515625 548.831054688 l 1
 314.150390625 548.831054688 l 1
 335.848632812 548.831054688 l 1
 335.848632812 548.768554688 l 1
 420.892578125 548.0234375 462.680664062 538.131835938 460.4921875 407.322265625 c 0
EndSplineSet
EndChar

StartChar: u16B56
Encoding: 93014 93014 104
Width: 549
Flags: W
LayerCount: 2
Fore
SplineSet
228.301757812 490.244140625 m 0
 227.669921875 490.233398438 227.047851562 490.22265625 226.4140625 490.211914062 c 2
 226.4140625 490.234375 l 1
 86.716796875 489.8359375 71.697265625 436.43359375 71.697265625 326.192382812 c 2
 71.697265625 214.206054688 l 2
 71.697265625 103.96484375 86.716796875 50.5625 226.4140625 50.1630859375 c 1
 226.4140625 50.185546875 l 2
 227.047851562 50.1748046875 227.668945312 50.1630859375 228.30078125 50.15234375 c 0
 228.75 50.16015625 229.197265625 50.16796875 229.643554688 50.17578125 c 0
 375.801757812 53.1640625 394.7265625 107.84765625 394.827148438 184.368164062 c 0
 394.83984375 193.989257812 394.555664062 203.955078125 394.189453125 214.206054688 c 1
 456.602539062 214.206054688 l 1
 456.602539062 141.1171875 l 2
 456.602539062 59.8154296875 427.038085938 -5.8828125 252.9375 -5.8828125 c 2
 203.663085938 -5.8828125 l 2
 29.5625 -5.8828125 -0.001953125 93.947265625 -0.001953125 175.249023438 c 2
 -0.001953125 365.149414062 l 2
 -0.001953125 446.451171875 29.5625 546.28125 203.663085938 546.28125 c 2
 252.9375 546.28125 l 2
 331.140625 545.513671875 373.592773438 518.38671875 396.224609375 481.477539062 c 1
 396.224609375 548.833007812 l 1
 456.6015625 548.833007812 l 1
 456.6015625 326.19140625 l 1
 394.188476562 326.19140625 l 1
 384.93359375 423.99609375 366.124023438 488.03515625 229.905273438 490.216796875 c 0
 229.370117188 490.225585938 228.838867188 490.235351562 228.301757812 490.244140625 c 0
EndSplineSet
EndChar

StartChar: u16B57
Encoding: 93015 93015 105
Width: 550
Flags: W
LayerCount: 2
Fore
SplineSet
300.533203125 467.043945312 m 0
 282.032226562 399.653320312 390.975585938 362.9765625 420.700195312 437.765625 c 1
 422.022460938 459.611328125 412.950195312 478.545898438 391.310546875 493.541015625 c 0
 367.688476562 509.909179688 312.349609375 510.0859375 300.533203125 467.043945312 c 0
417.233398438 -6.5947265625 m 1
 220.013671875 218.5625 l 1
 85.9833984375 148.900390625 l 1
 85.9833984375 -6.0732421875 l 1
 14.28515625 -6.0732421875 l 1
 14.28515625 548.643554688 l 1
 85.9833984375 548.643554688 l 1
 85.9833984375 215.270507812 l 1
 281.58203125 310.762695312 l 2
 314.745117188 327.059570312 349.485351562 344.538085938 380.346679688 364.32421875 c 1
 334.961914062 345.466796875 273.629882812 376.841796875 258.944335938 418.201171875 c 0
 237.357421875 478.998046875 274.483398438 542.16015625 339.83984375 548.528320312 c 0
 465.20703125 560.743164062 500.549804688 432.821289062 450.904296875 359.822265625 c 1
 450.490234375 357.928710938 l 2
 445.19140625 351.362304688 429.293945312 331.662109375 402.740234375 314.428710938 c 0
 397.26953125 310.87890625 390.76171875 307.295898438 389.149414062 306.469726562 c 2
 289.081054688 254.459960938 l 1
 473.168945312 36.970703125 l 1
 417.233398438 -6.5947265625 l 1
EndSplineSet
EndChar

StartChar: u16B58
Encoding: 93016 93016 106
Width: 546
Flags: W
LayerCount: 2
Fore
SplineSet
390.8359375 43.7666015625 m 0
 415.180664062 53.791015625 428.088867188 70.3505859375 431.46484375 91.9736328125 c 1
 418.408203125 171.38671875 304.143554688 158.836914062 307.81640625 89.0498046875 c 0
 310.162109375 44.4775390625 364.26171875 32.82421875 390.8359375 43.7666015625 c 0
485.17578125 134.333984375 m 1
 484.998046875 134.393554688 l 1
 496.643554688 56.4111328125 435.842773438 -33.533203125 328.803710938 1.0478515625 c 0
 266.318359375 21.2353515625 243.547851562 90.873046875 277.62890625 145.65234375 c 0
 302.74609375 186.024414062 376.7578125 203.694335938 414.065429688 165.048828125 c 1
 412.577148438 166.87890625 l 2
 400.078125 182.240234375 386.735351562 196.896484375 372.611328125 210.778320312 c 2
 266.620117188 314.200195312 l 1
 100.270507812 181.258789062 l 1
 100.270507812 -5.2900390625 l 1
 28.572265625 -5.2900390625 l 1
 28.572265625 549.426757812 l 1
 100.270507812 549.426757812 l 1
 100.270507812 277.940429688 l 1
 445.743164062 547.96875 l 1
 486.83203125 490.189453125 l 1
 314.412109375 352.396484375 l 1
 443.876953125 218.202148438 l 2
 445.127929688 216.891601562 449.966796875 211.265625 454.095703125 206.217773438 c 0
 457.989257812 201.45703125 481.40234375 168.295898438 485.17578125 134.333984375 c 1
EndSplineSet
EndChar

StartChar: u16B59
Encoding: 93017 93017 107
Width: 522
Flags: W
LayerCount: 2
Fore
SplineSet
472.776367188 41.9794921875 m 1
 433.299804688 -5.0849609375 l 1
 85.984375 269.573242188 l 1
 85.984375 -5.884765625 l 1
 14.2861328125 -5.884765625 l 1
 14.2861328125 548.83203125 l 1
 85.984375 548.83203125 l 1
 85.984375 354.163085938 l 1
 199.462890625 262.573242188 l 1
 424.064453125 546.388671875 l 1
 471.645507812 507.53515625 l 1
 250.724609375 221.19921875 l 1
 472.776367188 41.9794921875 l 1
EndSplineSet
EndChar

StartChar: u16B5B
Encoding: 93019 93019 109
Width: 140
Flags: HW
LayerCount: 2
Fore
SplineSet
1.0234375 548.831054688 m 1
 76.8505859375 548.831054688 l 1
 76.8505859375 -5.8857421875 l 1
 1.0234375 -5.8857421875 l 1
 1.0234375 548.831054688 l 1
EndSplineSet
EndChar

